<svg width="45" height="48" viewBox="0 0 45 48" fill="none" xmlns="http://www.w3.org/2000/svg">
<path d="M34.5055 26.8918C36.0118 20.2242 31.8277 13.598 25.1602 12.0917C18.4926 10.5855 11.8664 14.7695 10.3602 21.4371C8.85388 28.1046 13.0379 34.7308 19.7055 36.2371C26.373 37.7434 32.9992 33.5593 34.5055 26.8918Z" stroke="#7BD6C4" stroke-width="2" stroke-linecap="round" stroke-linejoin="round"/>
<path d="M16.6973 39.7656V43.438C16.6973 45.2003 18.1234 46.6264 19.8857 46.6264H24.974C26.7363 46.6264 28.1625 45.2003 28.1625 43.438V39.7656H16.6973Z" stroke="#7BD6C4" stroke-width="2" stroke-linecap="round" stroke-linejoin="round"/>
<path d="M22.4336 7.6871V1.62598" stroke="#7BD6C4" stroke-width="2" stroke-linecap="round" stroke-linejoin="round"/>
<path d="M12.7509 10.8344L9.18555 5.93457" stroke="#7BD6C4" stroke-width="2" stroke-linecap="round" stroke-linejoin="round"/>
<path d="M6.76061 19.0704L1 17.2012" stroke="#7BD6C4" stroke-width="2" stroke-linecap="round" stroke-linejoin="round"/>
<path d="M6.76061 29.2578L1 31.1322" stroke="#7BD6C4" stroke-width="2" stroke-linecap="round" stroke-linejoin="round"/>
<path d="M43.8668 31.1322L38.1113 29.2578" stroke="#7BD6C4" stroke-width="2" stroke-linecap="round" stroke-linejoin="round"/>
<path d="M43.8668 17.2012L38.1113 19.0704" stroke="#7BD6C4" stroke-width="2" stroke-linecap="round" stroke-linejoin="round"/>
<path d="M35.6814 5.93457L32.1211 10.8293" stroke="#7BD6C4" stroke-width="2" stroke-linecap="round" stroke-linejoin="round"/>
<path d="M13.9023 24.1644C13.9023 21.2968 15.3183 18.7552 17.4881 17.2119" stroke="#7BD6C4" stroke-width="2" stroke-linecap="round" stroke-linejoin="round"/>
<path d="M22.4336 28.2236V35.1303" stroke="#7BD6C4" stroke-width="2" stroke-linecap="round" stroke-linejoin="round"/>
<path d="M20.2988 25.4473L22.433 28.2232L24.8319 25.4473" stroke="#7BD6C4" stroke-width="2" stroke-linecap="round" stroke-linejoin="round"/>
</svg>
