<svg width="45" height="47" viewBox="0 0 45 47" fill="none" xmlns="http://www.w3.org/2000/svg">
<path d="M34.506 26.2656C36.0123 19.598 31.8282 12.9718 25.1607 11.4656C18.4931 9.95929 11.8669 14.1433 10.3606 20.8109C8.85437 27.4785 13.0384 34.1046 19.706 35.6109C26.3735 37.1172 32.9997 32.9331 34.506 26.2656Z" stroke="#7BD6C4" stroke-width="2" stroke-linecap="round" stroke-linejoin="round"/>
<path d="M16.6978 39.1392V42.8115C16.6978 44.5739 18.124 46 19.8863 46H24.9746C26.7369 46 28.163 44.5739 28.163 42.8115V39.1392H16.6978Z" stroke="#7BD6C4" stroke-width="2" stroke-linecap="round" stroke-linejoin="round"/>
<path d="M22.4329 7.06112V1" stroke="#7BD6C4" stroke-width="2" stroke-linecap="round" stroke-linejoin="round"/>
<path d="M12.7504 10.2088L9.18506 5.30899" stroke="#7BD6C4" stroke-width="2" stroke-linecap="round" stroke-linejoin="round"/>
<path d="M6.76061 18.4448L1 16.5756" stroke="#7BD6C4" stroke-width="2" stroke-linecap="round" stroke-linejoin="round"/>
<path d="M6.76061 28.6316L1 30.5059" stroke="#7BD6C4" stroke-width="2" stroke-linecap="round" stroke-linejoin="round"/>
<path d="M43.8659 30.5059L38.1104 28.6316" stroke="#7BD6C4" stroke-width="2" stroke-linecap="round" stroke-linejoin="round"/>
<path d="M43.8659 16.5756L38.1104 18.4448" stroke="#7BD6C4" stroke-width="2" stroke-linecap="round" stroke-linejoin="round"/>
<path d="M35.6808 5.30899L32.1205 10.2037" stroke="#7BD6C4" stroke-width="2" stroke-linecap="round" stroke-linejoin="round"/>
<path d="M13.9015 23.5382C13.9015 20.6706 15.3174 18.129 17.4872 16.5858" stroke="#7BD6C4" stroke-width="2" stroke-linecap="round" stroke-linejoin="round"/>
<path d="M22.4329 27.5976V34.5042" stroke="#7BD6C4" stroke-width="2" stroke-linecap="round" stroke-linejoin="round"/>
<path d="M20.2988 24.8217L22.433 27.5976L24.8319 24.8217" stroke="#7BD6C4" stroke-width="2" stroke-linecap="round" stroke-linejoin="round"/>
</svg>
