<svg width="34" height="42" viewBox="0 0 34 42" fill="none" xmlns="http://www.w3.org/2000/svg">
<path d="M3.18518 10.7408C3.18518 16.2506 7.66618 20.7316 13.176 20.7316C18.6858 20.7316 23.1668 16.2506 23.1668 10.7408C23.1668 5.231 18.6858 0.75 13.176 0.75C7.66615 0.75 3.18518 5.23249 3.18518 10.7408ZM4.78519 10.7393C4.78519 6.11468 8.5498 2.35001 13.176 2.35001C17.8022 2.35001 21.5668 6.11468 21.5668 10.7393C21.5668 15.3655 17.8022 19.1302 13.176 19.1302C8.54983 19.1302 4.78519 15.3655 4.78519 10.7393Z" fill="#7BD6C4" stroke="#7BD6C4" stroke-width="0.5"/>
<path d="M26.4138 40.2317V40.2305V32.0524C26.4138 25.0828 20.6539 19.4199 13.5819 19.4199C6.50991 19.4199 0.75 25.0828 0.75 32.0524V40.2305C0.75 40.6731 1.11343 41.025 1.55329 41.025H25.609C26.0491 41.025 26.4116 40.6731 26.4138 40.2317ZM24.8057 39.436H2.35807V32.0524C2.35807 25.9679 7.38964 21.0104 13.5819 21.0104C19.7742 21.0104 24.8057 25.9679 24.8057 32.0524V39.436Z" fill="#7BD6C4" stroke="#7BD6C4" stroke-width="0.5"/>
<path d="M20.7499 4.90555L20.7498 4.90556C20.3076 4.97052 20.0021 5.38186 20.0671 5.82363C20.1315 6.26121 20.5369 6.57646 20.9868 6.50567C21.349 6.45365 21.7229 6.42619 22.0966 6.42619C26.2703 6.42619 29.667 9.81826 29.667 13.9885C29.667 18.1573 26.2718 21.5508 22.0966 21.5508C20.0738 21.5508 18.1739 20.7633 16.7425 19.3349C16.4263 19.0191 15.9148 19.0191 15.5985 19.335C15.2821 19.6511 15.2821 20.1626 15.5985 20.4786C17.3332 22.2115 19.6417 23.1668 22.0951 23.1668C27.1614 23.1668 31.2842 19.0488 31.2842 13.9885C31.2842 8.92672 27.1615 4.80865 22.0951 4.80865C21.643 4.80865 21.1906 4.8409 20.7499 4.90555Z" fill="#7BD6C4" stroke="#7BD6C4" stroke-width="0.5"/>
<path d="M32.1545 32.7132V39.4117L33.7194 40.2214V40.2209V32.7146C33.7194 26.2935 28.8055 21.0434 22.732 21.0434C22.1089 21.0434 21.4861 21.1 20.8794 21.2085L20.8791 21.2085C20.4452 21.2867 20.1722 21.7106 20.2428 22.1385C20.314 22.5705 20.7131 22.8738 21.1478 22.7977L21.1478 22.7977L21.1488 22.7976C21.6668 22.7046 22.2002 22.6567 22.732 22.6567C27.9122 22.6567 32.1545 27.153 32.1545 32.7132Z" fill="#7BD6C4" stroke="#7BD6C4" stroke-width="0.5"/>
</svg>
