<svg width="43" height="61" viewBox="0 0 43 61" fill="none" xmlns="http://www.w3.org/2000/svg">
<path d="M17.462 41.3204L17.4621 41.3201L22.9189 26.4083L27.3194 35.4127C27.3194 35.4128 27.3194 35.4128 27.3194 35.4128C27.7511 36.2968 29.0099 36.2945 29.4394 35.4093L40.1303 13.3787C40.3508 12.9247 40.1655 12.377 39.7148 12.15L39.714 12.1496C39.2547 11.9202 38.6982 12.1108 38.474 12.5723L38.4738 12.5727L28.3923 33.4113L24.0168 24.4585C23.513 23.4267 22.0194 23.5049 21.6251 24.5837L15.9748 40.0218L11.8747 35.4347L11.8746 35.4346C11.1107 34.5808 9.73367 34.753 9.20179 35.7678L9.42322 35.8839L9.20179 35.7678L4.48568 44.7669V12.6216C4.48568 12.1135 4.07459 11.698 3.56411 11.698C3.05574 11.698 2.64255 12.1114 2.64255 12.6216V47.6663C2.64255 48.6414 3.43102 49.4334 4.40499 49.4334H39.3434C39.8517 49.4334 40.2649 49.0199 40.2649 48.5098C40.2649 48.001 39.8532 47.5876 39.3434 47.5876H5.0885L10.6966 36.8818L15.0745 41.7789C15.7885 42.5784 17.0928 42.3258 17.462 41.3204Z" fill="#7BD6C4" stroke="#7BD6C4" stroke-width="0.5"/>
</svg>
