<svg width="39" height="41" viewBox="0 0 39 41" fill="none" xmlns="http://www.w3.org/2000/svg">
<path d="M14.875 0.375977C21.1027 0.375977 26.2256 4.82768 26.2256 10.3672C26.2253 15.9065 21.1025 20.3574 14.875 20.3574C8.64763 20.3572 3.52563 15.9064 3.52539 10.3672C3.52539 4.8293 8.64746 0.376163 14.875 0.375977ZM14.875 1.97559C9.55256 1.97577 5.27935 5.77039 5.2793 10.3652C5.2793 14.9616 9.55256 18.7557 14.875 18.7559C20.1976 18.7559 24.4717 14.9617 24.4717 10.3652C24.4716 5.77028 20.1976 1.97559 14.875 1.97559Z" fill="#7BD6C4" stroke="#7BD6C4" stroke-width="0.5"/>
<path d="M15.3379 19.0459C23.3459 19.0461 29.9248 24.6799 29.9248 31.6787V39.8574C29.9222 40.3278 29.494 40.6513 29.043 40.6514H1.63086C1.18023 40.6514 0.75 40.3284 0.75 39.8564V31.6787C0.75 24.6798 7.32973 19.0459 15.3379 19.0459ZM15.3379 20.6367C8.23099 20.6367 2.5127 25.6236 2.5127 31.6787V39.0615H28.1621V31.6787C28.1621 25.6238 22.4446 20.6369 15.3379 20.6367Z" fill="#7BD6C4" stroke="#7BD6C4" stroke-width="0.5"/>
<path d="M25.0391 4.43457C30.7614 4.43463 35.4755 8.52293 35.4756 13.6143C35.4756 18.7042 30.7614 22.7929 25.0391 22.793C22.4359 22.793 19.9724 21.9592 18.0498 20.4307L17.6729 20.1152C17.3101 19.7972 17.3101 19.2682 17.6729 18.9502L17.7393 18.8965C18.083 18.6499 18.5804 18.6676 18.9023 18.9492H18.9033C20.5392 20.3818 22.7169 21.1768 25.041 21.1768C29.8496 21.1766 33.7021 17.7533 33.7021 13.6143C33.7021 9.47385 29.8479 6.05193 25.041 6.05176C24.6114 6.05176 24.1811 6.08025 23.7646 6.13281L23.7637 6.13184C23.3324 6.19034 22.8986 5.94847 22.7822 5.53906L22.7637 5.4541C22.6843 4.97954 23.0587 4.59015 23.5156 4.53125L23.8916 4.48828C24.2704 4.45214 24.6549 4.43457 25.0391 4.43457Z" fill="#7BD6C4" stroke="#7BD6C4" stroke-width="0.5"/>
<path d="M25.7637 20.6699C32.6324 20.67 38.2488 25.8891 38.249 32.3408V39.8467L38.2451 39.9326C38.2006 40.3529 37.8165 40.6513 37.3926 40.6514H29.0947C28.6424 40.6512 28.2383 40.31 28.2383 39.8447C28.2384 39.3796 28.6424 39.0382 29.0947 39.0381H36.5361V32.3398C36.5361 26.8105 31.7188 22.2832 25.7637 22.2832C25.3062 22.2832 24.8477 22.3103 24.3965 22.3633L23.9482 22.4248H23.9473C23.504 22.4929 23.0484 22.2251 22.9629 21.7705C22.8764 21.3101 23.2145 20.9051 23.6641 20.834L24.1826 20.7627C24.7044 20.7013 25.234 20.6699 25.7637 20.6699Z" fill="#7BD6C4" stroke="#7BD6C4" stroke-width="0.5"/>
</svg>
