<svg width="53" height="75" viewBox="0 0 53 75" fill="none" xmlns="http://www.w3.org/2000/svg">
<path d="M20.5533 63.27H16.5268C15.7604 63.27 15.1361 62.6453 15.1361 61.8786V60.1397C15.1361 59.4782 14.7275 58.8974 14.119 58.6921C13.5175 58.4885 12.9247 58.2394 12.3548 57.9534C11.8024 57.6761 11.1307 57.7919 10.68 58.2411L9.41383 59.508C8.88948 60.0344 7.9723 60.0326 7.44794 59.508L4.60171 56.6584C4.06157 56.1162 4.06157 55.2336 4.60171 54.6914L5.88365 53.4087C6.3326 52.9596 6.44834 52.2893 6.17477 51.7401C5.89242 51.1733 5.64691 50.5785 5.44523 49.9748C5.24356 49.3712 4.6701 48.9677 4.01597 48.9677H2.23247C1.46611 48.9677 0.841797 48.343 0.841797 47.5762V43.5475C0.841797 42.7807 1.46436 42.156 2.23247 42.156H4.04579C4.69991 42.156 5.27337 41.7296 5.50135 41.0699C5.68724 40.533 5.90996 40.0013 6.16424 39.4907C6.45886 38.8923 6.36066 38.194 5.91873 37.75L4.60171 36.4323C4.06157 35.8901 4.06157 35.0075 4.60171 34.4653L7.4497 31.6157C7.97405 31.0911 8.88948 31.0893 9.41558 31.6157L10.7466 32.9475C11.1956 33.3949 11.876 33.4932 12.4828 33.1967C12.9949 32.9457 13.5245 32.7247 14.0611 32.5404C14.7152 32.3158 15.1361 31.7526 15.1361 31.1033V29.2434C15.1361 28.4766 15.7587 27.8519 16.5268 27.8519H20.5533C21.3196 27.8519 21.9439 28.4766 21.9439 29.2434V31.1033C21.9439 31.7526 22.3666 32.3158 23.0189 32.5404C23.5573 32.7264 24.0887 32.9457 24.5973 33.1967C25.2023 33.4932 25.8845 33.3967 26.3317 32.9475L27.6645 31.6157C28.1906 31.0893 29.106 31.0911 29.6304 31.6157L32.4766 34.4653C32.7396 34.7267 32.8834 35.0777 32.8834 35.4479C32.8834 35.8199 32.7379 36.1691 32.4766 36.4323L31.1596 37.75C30.7176 38.1922 30.6194 38.8923 30.9141 39.4907C31.1666 39.9995 31.3893 40.5312 31.5752 41.0699C31.8049 41.7296 32.3766 42.156 33.0325 42.156H34.8458C35.6122 42.156 36.2365 42.7807 36.2365 43.5475V47.5762C36.2365 48.343 35.6139 48.9677 34.8458 48.9677H33.0623C32.4082 48.9677 31.8347 49.3712 31.6331 49.9748C31.4332 50.5749 31.1859 51.1698 30.9035 51.7401C30.63 52.291 30.7457 52.9631 31.1947 53.4105L32.4748 54.6932C32.7379 54.9546 32.8817 55.3055 32.8817 55.6758C32.8817 56.046 32.7361 56.397 32.4748 56.6602L29.6286 59.5097C29.1043 60.0344 28.1871 60.0361 27.6627 59.5097L26.3966 58.2429C25.9476 57.7937 25.2742 57.6779 24.7218 57.9551C24.1536 58.2411 23.5608 58.4903 22.9576 58.6938C22.349 58.8991 21.9422 59.4817 21.9422 60.1414V61.8803C21.9439 62.6453 21.3196 63.27 20.5533 63.27ZM11.7234 56.3601C12.1584 56.3601 12.5968 56.4601 13.0036 56.6637C13.5122 56.9198 14.0453 57.1427 14.5837 57.3234C15.7762 57.727 16.5794 58.857 16.5794 60.1379V61.8768L20.555 61.8259L20.5042 60.1362C20.5042 58.857 21.3056 57.7252 22.4999 57.3217C23.04 57.1392 23.5696 56.9163 24.0782 56.6602C25.1848 56.1039 26.5281 56.3268 27.4172 57.2164L28.6834 58.4833L31.4595 55.6337L30.1793 54.4229C29.2936 53.5368 29.0674 52.198 29.6181 51.0926C29.8724 50.5802 30.0933 50.0485 30.2722 49.5116C30.6703 48.3202 31.7927 47.5201 33.0676 47.5201H34.8002V43.5422L33.036 43.5931C31.7786 43.5931 30.6457 42.7684 30.2196 41.5384C30.0512 41.0541 29.8531 40.5786 29.6269 40.1241C29.0569 38.9713 29.2638 37.6044 30.1442 36.7253L31.4612 35.4076L28.615 32.6299L27.3541 33.9617C26.4772 34.839 25.1146 35.0478 23.9659 34.4846C23.51 34.26 23.0347 34.0635 22.5525 33.8968C21.3284 33.4757 20.5042 32.3509 20.5042 31.0963V29.2364L16.5285 29.2873L16.5794 31.0963C16.5794 32.3509 15.7569 33.4757 14.5311 33.8968C14.0506 34.0617 13.5753 34.26 13.1176 34.4846C11.9672 35.0478 10.6046 34.8373 9.72949 33.9617L8.39844 32.6299L5.62235 35.4795L6.93937 36.7271C7.81973 37.6079 8.02666 38.973 7.45847 40.1259C7.23049 40.5838 7.03232 41.0594 6.86397 41.5401C6.43782 42.7684 5.30494 43.5949 4.04754 43.5949H2.23247L2.28333 47.5727L4.01597 47.5218C5.29091 47.5218 6.41327 48.3219 6.81136 49.5134C6.99198 50.0538 7.21295 50.5855 7.46548 51.0926C8.01614 52.198 7.78991 53.5368 6.9043 54.4229L5.62235 55.7056L8.47035 58.4833L9.66636 57.2164C10.2275 56.6566 10.9711 56.3601 11.7234 56.3601Z" fill="#7BD6C4"/>
<path d="M18.54 55.5477C13.0369 55.5477 8.55798 51.068 8.55798 45.5601C8.55798 40.0522 13.0352 35.5725 18.54 35.5725C24.0448 35.5725 28.522 40.0522 28.522 45.5601C28.522 51.068 24.0431 55.5477 18.54 55.5477ZM18.54 37.0166C13.8313 37.0166 9.99952 40.8506 9.99952 45.5619C9.99952 50.2732 13.8313 54.1071 18.54 54.1071C23.2504 54.1071 27.0822 50.2732 27.0822 45.5619C27.0822 40.8506 23.2504 37.0166 18.54 37.0166Z" fill="#7BD6C4"/>
<path d="M43.2215 34.5407C42.7357 34.5407 42.2762 34.2442 42.0938 33.7634L41.708 32.7457C41.6046 32.4737 41.3503 32.2877 41.0293 32.3088C40.6383 32.3228 40.2402 32.3123 39.8509 32.2772C39.5334 32.2509 39.2318 32.4158 39.1038 32.6965L38.6724 33.6564C38.3988 34.2617 37.6886 34.5319 37.08 34.26L34.8406 33.2493C34.5477 33.1177 34.3232 32.879 34.2092 32.579C34.0953 32.2789 34.1058 31.9508 34.2373 31.6578L34.6687 30.698C34.795 30.4172 34.7231 30.0803 34.4881 29.8592C34.2005 29.589 33.9304 29.2995 33.6831 28.9977C33.4902 28.7626 33.1781 28.6748 32.9063 28.7766L31.8909 29.1609C31.5892 29.2749 31.2631 29.2644 30.9702 29.1328C30.6773 29.0012 30.4528 28.7626 30.3389 28.4608L29.469 26.1639C29.234 25.5427 29.5479 24.8479 30.167 24.611L31.1982 24.2215C31.4682 24.1179 31.6454 23.846 31.6348 23.5442C31.6208 23.1476 31.6331 22.7528 31.6717 22.365C31.7015 22.0492 31.5366 21.7544 31.2613 21.6298L30.2757 21.1859C29.6707 20.9122 29.4006 20.198 29.6725 19.5926L30.6826 17.3519C30.9562 16.7466 31.6682 16.4763 32.2749 16.7483L33.278 17.201C33.5534 17.3239 33.8831 17.2537 34.0988 17.0256C34.3636 16.7448 34.6494 16.4781 34.9476 16.2342C35.1825 16.0412 35.272 15.7289 35.1685 15.4551L34.7704 14.4023C34.6564 14.104 34.667 13.7759 34.7985 13.4829C34.93 13.1898 35.1685 12.9652 35.4701 12.8512L37.7675 11.9809C38.0691 11.8668 38.3953 11.8773 38.6882 12.0089C38.981 12.1405 39.2055 12.3792 39.3195 12.681L39.7228 13.7478C39.8263 14.0198 40.0841 14.1935 40.4015 14.1847C40.7891 14.1725 41.1767 14.183 41.5607 14.2198C41.8676 14.2532 42.1587 14.0882 42.2797 13.818L42.7427 12.788C43.0163 12.1827 43.7283 11.9124 44.335 12.1844L46.5763 13.1951C46.8691 13.3267 47.0936 13.5653 47.2076 13.8671C47.3216 14.169 47.3111 14.4953 47.1795 14.7884L46.7166 15.8183C46.5938 16.0886 46.6639 16.4132 46.8902 16.6237C47.1708 16.8869 47.4373 17.1694 47.6828 17.4677C47.8775 17.7029 48.1897 17.7888 48.4597 17.6871L49.526 17.2835C49.8259 17.1694 50.1538 17.18 50.4467 17.3116C50.7413 17.4432 50.964 17.6818 51.078 17.9836L51.9478 20.2822C52.1828 20.9034 51.8671 21.6 51.2481 21.8351L50.1959 22.2334C49.9223 22.337 49.7487 22.6107 49.7592 22.916C49.7732 23.3038 49.7627 23.6951 49.7276 24.0776C49.6996 24.3899 49.8644 24.6847 50.1398 24.8075L51.1429 25.2602C51.7479 25.534 52.018 26.2481 51.7461 26.8535L50.736 29.0942C50.6045 29.3872 50.366 29.6118 50.0644 29.7259C49.7627 29.8399 49.4365 29.8294 49.1437 29.6978L48.1581 29.2539C47.8828 29.1293 47.5531 29.2012 47.3356 29.4329C47.0708 29.7171 46.7832 29.9873 46.4781 30.24C46.2431 30.433 46.1571 30.7453 46.2588 31.0173L46.6482 32.0456C46.8832 32.6667 46.5693 33.3633 45.9484 33.5984L43.6511 34.4688C43.5056 34.5161 43.3635 34.5407 43.2215 34.5407ZM41.0592 30.8682C41.9483 30.8682 42.7445 31.4104 43.0584 32.2368L43.3582 33.0317L45.2119 32.3298L44.9068 31.5227C44.5858 30.6734 44.8471 29.7083 45.5574 29.124C45.8134 28.9135 46.0554 28.6854 46.2781 28.4467C46.9147 27.7624 47.9056 27.5571 48.7456 27.9361L49.5154 28.2835L50.3292 26.4745L49.5418 26.12C48.7087 25.7445 48.2037 24.8689 48.2879 23.9442C48.3177 23.6214 48.3264 23.2933 48.3142 22.9686C48.2791 22.0457 48.828 21.2069 49.6803 20.8841L50.5115 20.5682L49.8101 18.7136L48.9665 19.0329C48.1178 19.354 47.155 19.0943 46.5692 18.3837C46.3623 18.1328 46.1378 17.8941 45.9028 17.673C45.2277 17.0414 45.0243 16.0552 45.3995 15.2235L45.7661 14.4093L43.958 13.5952L43.5915 14.4093C43.2162 15.2428 42.3464 15.7446 41.4222 15.6552C41.1012 15.6236 40.7716 15.6148 40.4489 15.6253C39.5089 15.6517 38.6952 15.1077 38.3743 14.2584L38.0551 13.4127L36.2014 14.1146L36.5171 14.9463C36.838 15.799 36.575 16.7641 35.8612 17.3502C35.6104 17.5555 35.3702 17.7801 35.1475 18.0152C34.5109 18.6907 33.5218 18.8925 32.687 18.517L31.8996 18.1626L31.0859 19.9699L31.8558 20.3173C32.6941 20.6963 33.1974 21.5754 33.1079 22.5054C33.0764 22.83 33.0658 23.1634 33.0764 23.4968C33.1079 24.4162 32.559 25.2497 31.7102 25.5708L30.9035 25.8761L31.605 27.7308L32.3994 27.4308C33.2517 27.1079 34.2163 27.3711 34.802 28.087C35.0089 28.3414 35.2369 28.5853 35.4772 28.8117C36.1594 29.4539 36.3645 30.4506 35.984 31.2928L35.649 32.0368L37.4553 32.851L37.7903 32.107C38.1708 31.2647 39.0407 30.7559 39.9841 30.8454C40.3121 30.8752 40.6435 30.8857 40.975 30.8717C41.003 30.8682 41.0311 30.8682 41.0592 30.8682Z" fill="#7BD6C4"/>
<path d="M40.6961 28.9118C39.9158 28.9118 39.1248 28.7503 38.3673 28.4099C36.9818 27.7853 35.9226 26.6588 35.386 25.2357C34.8476 23.8144 34.8949 22.2686 35.5193 20.8824C36.1436 19.4962 37.2694 18.4364 38.6917 17.8994C40.1139 17.3608 41.6572 17.4099 43.0426 18.0328C44.428 18.6575 45.4855 19.784 46.0239 21.2052C46.5622 22.6265 46.5149 24.1724 45.8906 25.5586C44.9418 27.6642 42.8655 28.9118 40.6961 28.9118ZM40.7067 18.9698C40.1981 18.9698 39.6895 19.0628 39.2003 19.247C38.1393 19.6488 37.2975 20.4402 36.8328 21.4755C36.3663 22.5107 36.3312 23.6653 36.7328 24.7269C37.1344 25.7884 37.9253 26.6307 38.96 27.0974C41.0942 28.059 43.6143 27.1045 44.5771 24.969C45.0435 23.9338 45.0786 22.7792 44.677 21.7176C44.2754 20.656 43.4845 19.8138 42.4498 19.3488C41.8939 19.0961 41.3012 18.9698 40.7067 18.9698Z" fill="#7BD6C4"/>
</svg>
