<svg width="42" height="46" viewBox="0 0 42 46" fill="none" xmlns="http://www.w3.org/2000/svg">
<path d="M32.5 12.3482C33.8526 12.3738 34.5449 13.5084 34.5449 14.3482C34.5449 15.1879 33.5256 16.393 33.5256 16.393C32.9231 17.4956 34.1987 17.4956 34.1987 17.4956H40.5897V3.60458C40.5897 2.3097 39.5385 1.25842 38.2436 1.25842H24.4103V7.69432C24.4103 7.69432 24.4359 8.44432 23.7564 8.34816C23.6218 8.32893 23.5 8.27124 23.391 8.19432C22.9231 7.84816 20.9615 6.65586 19.8718 8.16227C19.3397 8.89945 19.3333 9.91868 19.8718 10.6494C20.9679 12.1302 22.9231 10.893 23.3846 10.5469C23.4936 10.47 23.6154 10.4123 23.75 10.393C24.4231 10.2969 24.4038 11.0469 24.4038 11.0469V17.4828H30.7949C30.7949 17.4828 32.0705 17.4828 31.4679 16.3802C31.4679 16.3802 30.4487 15.1815 30.4487 14.3353C30.4487 13.4892 31.141 12.3097 32.4936 12.3353L32.5 12.3482Z" stroke="#7BD6C4" stroke-width="2" stroke-linecap="round" stroke-linejoin="round"/>
<path d="M17.1731 44.2328V44.2456H3.84615C2.27564 44.2456 1 42.97 1 41.3994V28.0084H7.39102C7.39102 28.0084 8.66667 28.0084 8.0641 29.111C8.0641 29.111 7.04487 30.3097 7.04487 31.1559C7.04487 32.002 7.73718 33.1815 9.08974 33.1559C10.4423 33.1815 11.1282 31.9956 11.1282 31.1559C11.1282 30.3161 10.109 29.111 10.109 29.111C9.50641 28.0084 10.782 28.0084 10.782 28.0084L17.1731 27.9956V34.4315C17.1731 34.4315 17.1987 35.1815 16.5192 35.0853C16.3846 35.0661 16.2628 35.0084 16.1538 34.9315C15.6859 34.5853 13.7244 33.393 12.6346 34.8994C12.1026 35.6366 12.0962 36.6559 12.6346 37.3866C13.7308 38.8674 15.6859 37.6302 16.1474 37.2841C16.2564 37.2071 16.3782 37.1494 16.5128 37.1302C17.1859 37.0341 17.1667 37.7841 17.1667 37.7841V44.22L17.1731 44.2328Z" stroke="#7BD6C4" stroke-width="2" stroke-linecap="round" stroke-linejoin="round"/>
<path d="M1 28.002V14.4828C1 13.0212 2.1859 11.8289 3.65385 11.8289H17.1731V18.2135C17.1731 18.2135 17.1731 19.4892 16.0705 18.8866C16.0705 18.8866 14.8782 17.8674 14.0321 17.8674C13.1859 17.8674 12.0641 18.5597 12.0385 19.9058C12.0128 21.2584 13.1923 21.9507 14.0321 21.9507C14.8718 21.9507 16.0705 20.9315 16.0705 20.9315C17.1731 20.3289 17.1731 21.6046 17.1731 21.6046V27.9956" stroke="#7BD6C4" stroke-width="2" stroke-linecap="round" stroke-linejoin="round"/>
<path d="M17.1731 27.9764L23.5705 28.002C23.5705 28.002 24.3205 28.0277 24.2244 27.3482C24.2051 27.2135 24.1474 27.0918 24.0705 26.9828C23.7244 26.5148 22.4936 24.5597 23.9679 23.47C24.7051 22.9251 25.7244 22.9315 26.4615 23.47C27.9615 24.5661 26.7756 26.5212 26.4295 26.9892C26.3461 27.0982 26.2885 27.22 26.2692 27.3546C26.1731 28.0276 26.9231 28.0084 26.9231 28.0084H33.3397V41.7584C33.3397 43.1366 32.2179 44.2584 30.8397 44.2584H17.1602" stroke="#7BD6C4" stroke-width="2" stroke-linecap="round" stroke-linejoin="round"/>
</svg>
