<svg width="53" height="52" viewBox="0 0 53 52" fill="none" xmlns="http://www.w3.org/2000/svg">
<g clip-path="url(#clip0_420_5744)">
<path d="M20.5533 51.8956H16.5268C15.7604 51.8956 15.1361 51.271 15.1361 50.5042V48.7653C15.1361 48.1038 14.7275 47.523 14.119 47.3177C13.5175 47.1141 12.9247 46.865 12.3548 46.579C11.8024 46.3017 11.1307 46.4175 10.68 46.8667L9.41383 48.1336C8.88948 48.66 7.9723 48.6582 7.44794 48.1336L4.60171 45.284C4.06157 44.7418 4.06157 43.8592 4.60171 43.317L5.88365 42.0344C6.3326 41.5852 6.44834 40.9149 6.17477 40.3657C5.89242 39.7989 5.64691 39.2041 5.44523 38.6005C5.24356 37.9969 4.6701 37.5933 4.01597 37.5933H2.23247C1.46611 37.5933 0.841797 36.9686 0.841797 36.2018V32.1731C0.841797 31.4063 1.46436 30.7816 2.23247 30.7816H4.04579C4.69991 30.7816 5.27337 30.3553 5.50135 29.6955C5.68724 29.1586 5.90996 28.6269 6.16424 28.1163C6.45886 27.5179 6.36066 26.8196 5.91873 26.3757L4.60171 25.0579C4.06157 24.5157 4.06157 23.6331 4.60171 23.0909L7.4497 20.2413C7.97405 19.7167 8.88948 19.7149 9.41558 20.2413L10.7466 21.5731C11.1956 22.0206 11.876 22.1188 12.4828 21.8223C12.9949 21.5714 13.5245 21.3503 14.0611 21.166C14.7152 20.9414 15.1361 20.3782 15.1361 19.7289V17.869C15.1361 17.1022 15.7587 16.4775 16.5268 16.4775H20.5533C21.3196 16.4775 21.9439 17.1022 21.9439 17.869V19.7289C21.9439 20.3782 22.3666 20.9414 23.0189 21.166C23.5573 21.352 24.0887 21.5714 24.5973 21.8223C25.2023 22.1188 25.8845 22.0223 26.3317 21.5731L27.6645 20.2413C28.1906 19.7149 29.106 19.7167 29.6304 20.2413L32.4766 23.0909C32.7396 23.3523 32.8834 23.7033 32.8834 24.0735C32.8834 24.4455 32.7379 24.7947 32.4766 25.0579L31.1596 26.3757C30.7176 26.8178 30.6194 27.5179 30.9141 28.1163C31.1666 28.6251 31.3893 29.1568 31.5752 29.6955C31.8049 30.3553 32.3766 30.7816 33.0325 30.7816H34.8458C35.6122 30.7816 36.2365 31.4063 36.2365 32.1731V36.2018C36.2365 36.9686 35.6139 37.5933 34.8458 37.5933H33.0623C32.4082 37.5933 31.8347 37.9969 31.6331 38.6005C31.4332 39.2006 31.1859 39.7954 30.9035 40.3657C30.63 40.9166 30.7457 41.5887 31.1947 42.0361L32.4748 43.3188C32.7379 43.5802 32.8817 43.9312 32.8817 44.3014C32.8817 44.6716 32.7361 45.0226 32.4748 45.2858L29.6286 48.1354C29.1043 48.66 28.1871 48.6618 27.6627 48.1354L26.3966 46.8685C25.9476 46.4193 25.2742 46.3035 24.7218 46.5807C24.1536 46.8667 23.5608 47.1159 22.9576 47.3194C22.349 47.5247 21.9422 48.1073 21.9422 48.767V50.5059C21.9439 51.271 21.3196 51.8956 20.5533 51.8956ZM11.7234 44.9857C12.1584 44.9857 12.5968 45.0857 13.0036 45.2893C13.5122 45.5455 14.0453 45.7683 14.5837 45.949C15.7762 46.3526 16.5794 47.4826 16.5794 48.7635V50.5024L20.555 50.4515L20.5042 48.7618C20.5042 47.4826 21.3056 46.3509 22.4999 45.9473C23.04 45.7648 23.5696 45.5419 24.0782 45.2858C25.1848 44.7295 26.5281 44.9524 27.4172 45.842L28.6834 47.1089L31.4595 44.2593L30.1793 43.0486C29.2936 42.1624 29.0674 40.8236 29.6181 39.7182C29.8724 39.2058 30.0933 38.6742 30.2722 38.1372C30.6703 36.9458 31.7927 36.1457 33.0676 36.1457H34.8002V32.1678L33.036 32.2187C31.7786 32.2187 30.6457 31.394 30.2196 30.164C30.0512 29.6797 29.8531 29.2042 29.6269 28.7497C29.0569 27.5969 29.2638 26.23 30.1442 25.3509L31.4612 24.0332L28.615 21.2555L27.3541 22.5873C26.4772 23.4646 25.1146 23.6735 23.9659 23.1102C23.51 22.8856 23.0347 22.6891 22.5525 22.5224C21.3284 22.1013 20.5042 20.9765 20.5042 19.7219V17.862L16.5285 17.9129L16.5794 19.7219C16.5794 20.9765 15.7569 22.1013 14.5311 22.5224C14.0506 22.6873 13.5753 22.8856 13.1176 23.1102C11.9672 23.6735 10.6046 23.4629 9.72949 22.5873L8.39844 21.2555L5.62235 24.1051L6.93937 25.3527C7.81973 26.2335 8.02666 27.5987 7.45847 28.7515C7.23049 29.2094 7.03232 29.685 6.86397 30.1657C6.43782 31.394 5.30494 32.2205 4.04754 32.2205H2.23247L2.28333 36.1983L4.01597 36.1474C5.29091 36.1474 6.41327 36.9476 6.81136 38.139C6.99198 38.6794 7.21295 39.2111 7.46548 39.7182C8.01614 40.8236 7.78991 42.1624 6.9043 43.0486L5.62235 44.3312L8.47035 47.1089L9.66636 45.842C10.2275 45.2823 10.9711 44.9857 11.7234 44.9857Z" fill="#7BD6C4"/>
<path d="M18.5406 44.1734C13.0375 44.1734 8.55859 39.6938 8.55859 34.1858C8.55859 28.6779 13.0358 24.1982 18.5406 24.1982C24.0454 24.1982 28.5226 28.6779 28.5226 34.1858C28.5226 39.6938 24.0437 44.1734 18.5406 44.1734ZM18.5406 25.6423C13.8319 25.6423 10.0001 29.4763 10.0001 34.1876C10.0001 38.8989 13.8319 42.7329 18.5406 42.7329C23.251 42.7329 27.0828 38.8989 27.0828 34.1876C27.0828 29.4763 23.251 25.6423 18.5406 25.6423Z" fill="#7BD6C4"/>
<path d="M43.2211 23.1668C42.7353 23.1668 42.2759 22.8703 42.0935 22.3895L41.7077 21.3718C41.6042 21.0998 41.3499 20.9138 41.029 20.9349C40.6379 20.9489 40.2398 20.9384 39.8505 20.9033C39.5331 20.877 39.2314 21.0419 39.1034 21.3226L38.672 22.2825C38.3984 22.8878 37.6882 23.158 37.0797 22.8861L34.8402 21.8754C34.5473 21.7438 34.3229 21.5051 34.2089 21.2051C34.0949 20.905 34.1054 20.5769 34.2369 20.2839L34.6683 19.3241C34.7946 19.0433 34.7227 18.7064 34.4877 18.4853C34.2001 18.2151 33.93 17.9256 33.6828 17.6238C33.4899 17.3887 33.1777 17.3009 32.9059 17.4027L31.8905 17.787C31.5889 17.901 31.2627 17.8905 30.9698 17.7589C30.677 17.6273 30.4525 17.3887 30.3385 17.0869L29.4687 14.79C29.2337 14.1688 29.5476 13.474 30.1666 13.2371L31.1978 12.8476C31.4679 12.744 31.645 12.4721 31.6345 12.1703C31.6204 11.7737 31.6327 11.3789 31.6713 10.9911C31.7011 10.6753 31.5363 10.3805 31.2609 10.2559L30.2754 9.81199C29.6703 9.53826 29.4003 8.82411 29.6721 8.21875L30.6822 5.97803C30.9558 5.37266 31.6678 5.10244 32.2746 5.37442L33.2777 5.82713C33.553 5.94995 33.8827 5.87977 34.0984 5.65166C34.3632 5.37091 34.6491 5.1042 34.9472 4.8603C35.1822 4.66729 35.2716 4.35495 35.1681 4.08123L34.7701 3.02842C34.6561 2.73013 34.6666 2.402 34.7981 2.10897C34.9296 1.81594 35.1681 1.59134 35.4698 1.47729L37.7671 0.606971C38.0688 0.492918 38.3949 0.503446 38.6878 0.635047C38.9807 0.766647 39.2051 1.00528 39.3191 1.30709L39.7225 2.37393C39.8259 2.6459 40.0837 2.81961 40.4012 2.81084C40.7887 2.79856 41.1763 2.80909 41.5603 2.84594C41.8672 2.87927 42.1584 2.71433 42.2794 2.44411L42.7423 1.41412C43.0159 0.808759 43.7279 0.53854 44.3347 0.810514L46.5759 1.82121C46.8688 1.95281 47.0932 2.19144 47.2072 2.49325C47.3212 2.79505 47.3107 3.12142 47.1792 3.41445L46.7162 4.44444C46.5934 4.71466 46.6636 5.03928 46.8898 5.24984C47.1704 5.51304 47.437 5.79554 47.6825 6.09384C47.8771 6.32896 48.1893 6.41494 48.4594 6.31317L49.5256 5.9096C49.8255 5.79554 50.1534 5.80607 50.4463 5.93767C50.7409 6.06927 50.9636 6.30791 51.0776 6.60971L51.9474 8.90833C52.1824 9.52949 51.8668 10.2261 51.2477 10.4612L50.1955 10.8595C49.9219 10.9631 49.7483 11.2368 49.7588 11.5421C49.7729 11.9299 49.7624 12.3212 49.7273 12.7037C49.6992 13.016 49.8641 13.3108 50.1394 13.4336L51.1425 13.8863C51.7475 14.1601 52.0176 14.8742 51.7458 15.4796L50.7356 17.7203C50.6041 18.0133 50.3656 18.2379 50.064 18.352C49.7624 18.466 49.4362 18.4555 49.1433 18.3239L48.1577 17.88C47.8824 17.7554 47.5527 17.8273 47.3352 18.059C47.0704 18.3432 46.7828 18.6134 46.4777 18.8661C46.2427 19.0591 46.1568 19.3714 46.2585 19.6434L46.6478 20.6717C46.8828 21.2928 46.5689 21.9894 45.9481 22.2245L43.6507 23.0949C43.5052 23.1422 43.3631 23.1668 43.2211 23.1668ZM41.0588 19.4943C41.9479 19.4943 42.7441 20.0365 43.058 20.8629L43.3579 21.6578L45.2115 20.9559L44.9064 20.1488C44.5855 19.2995 44.8468 18.3344 45.557 17.7501C45.813 17.5396 46.0551 17.3115 46.2778 17.0728C46.9144 16.3885 47.9052 16.1832 48.7452 16.5622L49.5151 16.9096L50.3288 15.1006L49.5414 14.7461C48.7084 14.3706 48.2033 13.495 48.2875 12.5703C48.3173 12.2475 48.3261 11.9194 48.3138 11.5947C48.2787 10.6718 48.8276 9.83304 49.6799 9.51018L50.5112 9.19434L49.8097 7.33965L48.9662 7.659C48.1174 7.98011 47.1546 7.72042 46.5689 7.00977C46.3619 6.75886 46.1375 6.52022 45.9025 6.29913C45.2273 5.66745 45.0239 4.68132 45.3992 3.84961L45.7657 3.03544L43.9576 2.22127L43.5911 3.03544C43.2158 3.86891 42.346 4.37075 41.4218 4.28126C41.1009 4.24967 40.7712 4.2409 40.4485 4.25143C39.5085 4.27775 38.6948 3.7338 38.3739 2.88454L38.0547 2.03879L36.2011 2.74065L36.5167 3.57237C36.8377 4.42514 36.5746 5.39021 35.8609 5.97627C35.6101 6.18157 35.3698 6.40617 35.1471 6.64129C34.5105 7.31684 33.5214 7.51863 32.6867 7.14313L31.8993 6.78869L31.0856 8.596L31.8554 8.94343C32.6937 9.32243 33.197 10.2015 33.1076 11.1315C33.076 11.4561 33.0655 11.7895 33.076 12.1229C33.1076 13.0423 32.5587 13.8758 31.7099 14.1969L30.9032 14.5022L31.6047 16.3569L32.3991 16.0569C33.2514 15.734 34.2159 15.9972 34.8016 16.7131C35.0086 16.9675 35.2365 17.2114 35.4768 17.4378C36.159 18.08 36.3642 19.0767 35.9836 19.9189L35.6487 20.6629L37.455 21.4771L37.7899 20.7331C38.1705 19.8908 39.0403 19.382 39.9838 19.4715C40.3117 19.5013 40.6432 19.5118 40.9746 19.4978C41.0027 19.4943 41.0307 19.4943 41.0588 19.4943Z" fill="#7BD6C4"/>
<path d="M40.6958 17.5382C39.9155 17.5382 39.1245 17.3768 38.3669 17.0364C36.9815 16.4117 35.9223 15.2852 35.3857 13.8622C34.8473 12.4409 34.8946 10.895 35.519 9.50885C36.1433 8.12266 37.2691 7.06283 38.6914 6.5259C40.1136 5.98722 41.6569 6.03635 43.0423 6.65926C44.4277 7.28392 45.4852 8.41042 46.0236 9.83171C46.5619 11.253 46.5146 12.7989 45.8903 14.1851C44.9415 16.2907 42.8652 17.5382 40.6958 17.5382ZM40.7064 7.59625C40.1978 7.59625 39.6892 7.68925 39.1999 7.87349C38.139 8.27531 37.2972 9.06667 36.8325 10.1019C36.366 11.1372 36.3309 12.2918 36.7325 13.3533C37.1341 14.4149 37.925 15.2572 38.9597 15.7239C41.0939 16.6855 43.614 15.7309 44.5768 13.5955C45.0432 12.5602 45.0783 11.4056 44.6767 10.3441C44.2751 9.2825 43.4842 8.44025 42.4495 7.97526C41.8936 7.72259 41.3009 7.59625 40.7064 7.59625Z" fill="#7BD6C4"/>
</g>
<defs>
<clipPath id="clip0_420_5744">
<rect width="53" height="51" fill="white" transform="translate(0 0.625977)"/>
</clipPath>
</defs>
</svg>
