<svg width="43" height="46" viewBox="0 0 43 46" fill="none" xmlns="http://www.w3.org/2000/svg">
<path d="M33.4086 12.7157C34.7611 12.7414 35.4534 13.876 35.4534 14.7157C35.4534 15.5555 34.4342 16.7606 34.4342 16.7606C33.8316 17.8632 35.1073 17.8632 35.1073 17.8632H41.4983V3.97213C41.4983 2.67726 40.447 1.62598 39.1521 1.62598H25.3188V8.06187C25.3188 8.06187 25.3445 8.81187 24.665 8.71572C24.5304 8.69649 24.4086 8.6388 24.2996 8.56187C23.8316 8.21572 21.8701 7.02341 20.7804 8.52982C20.2483 9.267 20.2419 10.2862 20.7804 11.017C21.8765 12.4978 23.8316 11.2606 24.2932 10.9144C24.4021 10.8375 24.5239 10.7798 24.6586 10.7606C25.3316 10.6644 25.3124 11.4144 25.3124 11.4144V17.8503H31.7034C31.7034 17.8503 32.9791 17.8503 32.3765 16.7478C32.3765 16.7478 31.3573 15.549 31.3573 14.7029C31.3573 13.8567 32.0496 12.6773 33.4021 12.7029L33.4086 12.7157Z" stroke="#7BD6C4" stroke-width="2" stroke-linecap="round" stroke-linejoin="round"/>
<path d="M18.0813 44.6005V44.6133H4.75436C3.18384 44.6133 1.9082 43.3376 1.9082 41.7671V28.3761H8.29923C8.29923 28.3761 9.57487 28.3761 8.9723 29.4787C8.9723 29.4787 7.95307 30.6774 7.95307 31.5235C7.95307 32.3697 8.64538 33.5492 9.99795 33.5235C11.3505 33.5492 12.0364 32.3633 12.0364 31.5235C12.0364 30.6838 11.0172 29.4787 11.0172 29.4787C10.4146 28.3761 11.6903 28.3761 11.6903 28.3761L18.0813 28.3633V34.7992C18.0813 34.7992 18.1069 35.5492 17.4274 35.453C17.2928 35.4338 17.171 35.3761 17.062 35.2992C16.5941 34.953 14.6326 33.7607 13.5428 35.2671C13.0108 36.0043 13.0044 37.0235 13.5428 37.7543C14.639 39.2351 16.5941 37.9979 17.0556 37.6517C17.1646 37.5748 17.2864 37.5171 17.421 37.4979C18.0941 37.4017 18.0749 38.1517 18.0749 38.1517V44.5876L18.0813 44.6005Z" stroke="#7BD6C4" stroke-width="2" stroke-linecap="round" stroke-linejoin="round"/>
<path d="M1.9082 28.3694V14.8501C1.9082 13.3886 3.0941 12.1963 4.56205 12.1963H18.0813V18.5809C18.0813 18.5809 18.0813 19.8565 16.9787 19.254C16.9787 19.254 15.7864 18.2348 14.9403 18.2348C14.0941 18.2348 12.9723 18.9271 12.9467 20.2732C12.921 21.6258 14.1005 22.3181 14.9403 22.3181C15.78 22.3181 16.9787 21.2989 16.9787 21.2989C18.0813 20.6963 18.0813 21.9719 18.0813 21.9719V28.363" stroke="#7BD6C4" stroke-width="2" stroke-linecap="round" stroke-linejoin="round"/>
<path d="M18.0812 28.3443L24.4786 28.3699C24.4786 28.3699 25.2286 28.3956 25.1325 27.7161C25.1132 27.5815 25.0555 27.4597 24.9786 27.3507C24.6325 26.8828 23.4017 24.9276 24.8761 23.8379C25.6132 23.293 26.6325 23.2994 27.3696 23.8379C28.8696 24.934 27.6837 26.8892 27.3376 27.3571C27.2543 27.4661 27.1966 27.5879 27.1773 27.7225C27.0812 28.3956 27.8312 28.3764 27.8312 28.3764H34.2478V42.1264C34.2478 43.5046 33.1261 44.6264 31.7478 44.6264H18.0684" stroke="#7BD6C4" stroke-width="2" stroke-linecap="round" stroke-linejoin="round"/>
</svg>
