<svg width="37" height="48" viewBox="0 0 37 48" fill="none" xmlns="http://www.w3.org/2000/svg">
<g clip-path="url(#clip0_420_5750)">
<path d="M0.564453 5.31152C1.07479 5.31169 1.48535 5.72739 1.48535 6.23535V38.3818L6.20215 29.3818L6.31152 29.2012C6.90389 28.3493 8.15884 28.2474 8.875 29.0479L12.9746 33.6348L18.625 18.1973L18.665 18.0986C19.1117 17.1145 20.5286 17.0728 21.0166 18.0723L25.3926 27.0244L35.4736 6.18652V6.18555L35.5195 6.10254C35.7505 5.72881 36.2158 5.56936 36.627 5.72461L36.7139 5.7627L36.7148 5.76367L36.7959 5.80957C37.161 6.04182 37.3161 6.50002 37.167 6.90625L37.1299 6.99219L26.4395 29.0225C26.0367 29.8524 24.9046 29.9068 24.4092 29.1816L24.3193 29.0264L19.918 20.0205L14.4619 34.9336C14.1158 35.8761 12.9478 36.1575 12.2148 35.5303L12.0742 35.3926L7.69629 30.4951L2.08789 41.2012H36.3438C36.8533 41.2014 37.2645 41.6145 37.2646 42.123C37.2646 42.6331 36.852 43.0467 36.3438 43.0469H1.40527C0.431445 43.0469 -0.357187 42.2552 -0.357422 41.2803V6.23535L-0.352539 6.14062C-0.305251 5.67486 0.0878783 5.31152 0.564453 5.31152Z" fill="#7BD6C4" stroke="#7BD6C4" stroke-width="0.5"/>
</g>
<defs>
<clipPath id="clip0_420_5750">
<rect width="37" height="47" fill="white" transform="translate(0 0.625977)"/>
</clipPath>
</defs>
</svg>
