<svg width="12" height="21" viewBox="0 0 12 21" fill="none" xmlns="http://www.w3.org/2000/svg">
<path d="M0.293177 19.7081C0.2002 19.6152 0.126442 19.5049 0.0761176 19.3835C0.0257932 19.2621 -0.000108601 19.132 -0.000108596 19.0006C-0.00010859 18.8691 0.0257932 18.739 0.0761177 18.6176C0.126442 18.4962 0.2002 18.3859 0.293177 18.2931L8.58693 10.0006L0.293178 1.70806C0.105537 1.52041 0.000121061 1.26592 0.000121073 1.00056C0.000121085 0.735192 0.105537 0.480696 0.293178 0.293056C0.480818 0.105415 0.735314 -4.46771e-07 1.00068 -4.37148e-07C1.26604 -4.27526e-07 1.52054 0.105415 1.70818 0.293056L10.7082 9.29306C10.8012 9.38593 10.8749 9.49622 10.9252 9.61762C10.9756 9.73901 11.0015 9.86914 11.0015 10.0006C11.0015 10.132 10.9756 10.2621 10.9252 10.3835C10.8749 10.5049 10.8012 10.6152 10.7082 10.7081L1.70818 19.7081C1.61531 19.801 1.50502 19.8748 1.38362 19.9251C1.26222 19.9754 1.13209 20.0013 1.00068 20.0013C0.869262 20.0013 0.739135 19.9754 0.617737 19.9251C0.496339 19.8748 0.386049 19.801 0.293177 19.7081Z" fill="#008C95"/>
</svg>
