<svg width="10" height="8" viewBox="0 0 10 8" fill="none" xmlns="http://www.w3.org/2000/svg">
<path d="M9.65703 0.821831C9.61719 0.725724 9.55879 0.638412 9.48519 0.564888C9.41166 0.491281 9.32435 0.432889 9.22824 0.393049C9.13214 0.353209 9.02912 0.332703 8.92508 0.332703C8.82105 0.332703 8.71803 0.353209 8.62192 0.393049C8.52582 0.432889 8.4385 0.491281 8.36498 0.564888L3.38342 5.54744L1.56852 3.73155C1.41997 3.58301 1.2185 3.49955 1.00842 3.49955C0.798336 3.49955 0.59686 3.58301 0.448311 3.73155C0.299762 3.8801 0.216309 4.08158 0.216309 4.29166C0.216309 4.50174 0.299762 4.70321 0.448311 4.85176L2.82331 7.22676C2.89684 7.30037 2.98415 7.35876 3.08025 7.3986C3.17636 7.43844 3.27938 7.45895 3.38342 7.45895C3.48745 7.45895 3.59047 7.43844 3.68658 7.3986C3.78268 7.35876 3.87 7.30037 3.94352 7.22676L9.48519 1.6851C9.55879 1.61157 9.61719 1.52426 9.65703 1.42815C9.69687 1.33205 9.71737 1.22903 9.71737 1.12499C9.71737 1.02095 9.69687 0.917938 9.65703 0.821831Z" fill="#008C95"/>
</svg>
