<svg width="35" height="39" viewBox="0 0 35 39" fill="none" xmlns="http://www.w3.org/2000/svg">
<g clip-path="url(#clip0_420_2417)">
<path d="M32.7802 2.63853H29.1751C29.1227 2.20668 29.0596 1.77828 28.9849 1.35477C28.8468 0.569855 28.1684 0 27.3716 0H7.62821C6.83141 0 6.15307 0.569855 6.01493 1.35477C5.94028 1.77857 5.87709 2.20697 5.82477 2.63853H2.21967C1.58482 2.63853 0.976429 2.8924 0.550847 3.33489C0.165237 3.73655 -0.0293315 4.24602 0.00358641 4.76959C0.144957 7.0263 0.427993 8.74679 0.894134 10.1841C1.46226 11.9356 2.32313 13.3269 3.52639 14.4376C4.78756 15.6017 6.44169 16.4723 8.55696 17.0678C8.71509 17.332 8.87909 17.5902 9.04897 17.8418C10.1306 19.4438 11.3947 20.7045 12.8063 21.5889C13.6572 22.122 14.5395 22.5038 15.4453 22.733C14.4355 26.4339 12.9494 29.8544 11.0429 32.8475H9.01869C7.37427 32.8475 6.03639 34.1562 6.03639 35.7649V38.4922C6.03639 38.7729 6.26887 39.0003 6.55573 39.0003H28.4441C28.731 39.0003 28.9634 38.7729 28.9634 38.4922V35.7649C28.9634 34.1562 27.6256 32.8475 25.9811 32.8475H23.957C22.0507 29.8544 20.5644 26.4339 19.5545 22.733C20.4603 22.5038 21.3429 22.122 22.1935 21.5889C23.6052 20.7045 24.8693 19.4438 25.9509 17.8418C26.1207 17.5902 26.2847 17.3323 26.4429 17.0678C28.5581 16.4726 30.2123 15.6017 31.4734 14.4376C32.6767 13.3269 33.5376 11.9356 34.1057 10.1841C34.5718 8.74679 34.8549 7.0263 34.9965 4.76959C35.0295 4.24574 34.8349 3.73626 34.449 3.33489C34.0234 2.8924 33.4153 2.63853 32.7802 2.63853ZM30.7607 13.6987C29.819 14.5678 28.6237 15.2599 27.1406 15.7837C27.6629 14.7225 28.1002 13.5776 28.4479 12.36C29.0519 10.245 29.3582 7.99954 29.3582 5.6859C29.3582 5.00535 29.3308 4.3271 29.277 3.65461H32.7802C33.1296 3.65461 33.4623 3.79175 33.6922 4.03096C33.8797 4.22619 33.9749 4.46626 33.9596 4.70749C33.7509 8.03605 33.219 11.4293 30.7604 13.6984L30.7607 13.6987ZM25.0844 17.2817C25.0536 17.3277 25.0224 17.3731 24.991 17.4185C23.4006 19.7201 21.427 21.21 19.2985 21.7477C19.1304 21.7902 18.9611 21.8267 18.7912 21.8572C18.6196 21.888 18.4467 21.9127 18.2733 21.9314C18.017 21.9587 17.7593 21.9728 17.5001 21.9728C17.2408 21.9728 16.9831 21.9587 16.7271 21.9314C16.5537 21.913 16.3811 21.8882 16.2092 21.8572C16.0393 21.8267 15.87 21.7899 15.7019 21.7477C13.5731 21.2097 11.5998 19.7198 10.0095 17.4185C9.97831 17.3734 9.94716 17.3277 9.916 17.282C9.81137 17.127 9.70909 16.9691 9.60916 16.809C9.48542 16.6109 9.36551 16.4091 9.24941 16.2035C7.58647 13.2639 6.68093 9.58116 6.68093 5.68619C6.68093 5.00535 6.70944 4.32682 6.76529 3.65489C6.77939 3.48497 6.79526 3.31563 6.8129 3.14685C6.83053 2.97693 6.85022 2.80759 6.87139 2.63881C6.91871 2.26533 6.97426 1.89444 7.03862 1.52728C7.09064 1.23143 7.3387 1.01637 7.62821 1.01637H27.3719C27.6614 1.01637 27.9095 1.23114 27.9615 1.52728C28.0262 1.89444 28.0817 2.26533 28.1287 2.63881C28.1502 2.80759 28.1696 2.97693 28.1872 3.14685C28.2049 3.31563 28.2207 3.48497 28.2348 3.65489C28.2907 4.32682 28.3192 5.00506 28.3192 5.68619C28.3192 9.58144 27.4137 13.2639 25.7507 16.2035C25.6343 16.4091 25.5144 16.6109 25.391 16.809C25.291 16.9691 25.1888 17.127 25.0841 17.282L25.0844 17.2817ZM22.7364 32.8472H12.2643C13.4382 30.9271 14.4493 28.8409 15.2869 26.6058C15.7357 25.408 16.1307 24.18 16.4708 22.9253C16.8114 22.9676 17.1547 22.9889 17.5004 22.9889C17.846 22.9889 18.1893 22.9676 18.5299 22.9253C18.87 24.18 19.2647 25.408 19.7138 26.6058C20.5514 28.8409 21.5625 30.9271 22.7364 32.8472ZM27.9251 35.7646V37.9839H7.07536V35.7646C7.07536 34.716 7.94739 33.8633 9.01899 33.8633H25.9811C27.053 33.8633 27.9248 34.7163 27.9248 35.7646H27.9251ZM4.23942 13.6987C1.78116 11.4293 1.24918 8.03634 1.0405 4.70749C1.02551 4.46655 1.12045 4.22619 1.30796 4.03125C1.53809 3.79204 1.8705 3.65489 2.21996 3.65489H5.72308C5.66929 4.3271 5.64196 5.00564 5.64196 5.68619C5.64196 7.99954 5.94821 10.245 6.5522 12.3603C6.8999 13.5779 7.33723 14.7225 7.85951 15.784C6.37644 15.2604 5.18111 14.5681 4.23942 13.6989V13.6987ZM22.401 8.5001L19.2077 8.25197L18.0194 5.45129L17.9797 5.35785C17.8992 5.16809 17.7099 5.04445 17.5001 5.04445C17.2902 5.04445 17.1009 5.16809 17.0204 5.35785L16.9807 5.45129L15.7924 8.25197L12.5991 8.5001C12.3898 8.51649 12.2111 8.65421 12.1462 8.84972C12.0812 9.04494 12.143 9.25943 12.3026 9.39283L14.737 11.4296L13.9914 14.4773C13.9426 14.6771 14.0213 14.8858 14.1912 15.0066C14.282 15.071 14.389 15.1037 14.4966 15.1037C14.5904 15.1037 14.6841 15.079 14.7676 15.029L16.8746 13.768L16.9807 13.7044L17.3995 13.4537L17.5001 13.3936L17.6006 13.4537L18.0194 13.7044L18.1255 13.768L20.2325 15.029C20.4115 15.1362 20.639 15.1273 20.8089 15.0066C20.9788 14.8858 21.0576 14.6771 21.0088 14.4773L20.2631 11.4296L22.6976 9.39283C22.8572 9.25943 22.9189 9.04494 22.8539 8.84972C22.789 8.6545 22.6103 8.51649 22.401 8.5001ZM19.3464 10.8592C19.1983 10.9831 19.1333 11.178 19.1789 11.3635L19.7073 13.5227L18.1017 12.5618L18.0194 12.5127L17.771 12.364C17.7102 12.3275 17.6435 12.3045 17.5753 12.2947C17.5503 12.2913 17.525 12.2893 17.5001 12.2893C17.4751 12.2893 17.4498 12.2913 17.4248 12.2947C17.3566 12.3045 17.2899 12.3275 17.2291 12.364L16.9807 12.5127L16.8984 12.5618L15.2928 13.5227L15.8212 11.3635C15.8668 11.178 15.8018 10.9831 15.6537 10.8592L13.9288 9.41612L16.1913 9.24045C16.3858 9.22521 16.5551 9.10503 16.6298 8.92878L16.9804 8.10218L17.4998 6.87794L18.0191 8.10218L18.3697 8.92878C18.4444 9.10503 18.614 9.2255 18.8083 9.24045L21.0708 9.41612L19.3458 10.8592H19.3464Z" fill="#008C95"/>
</g>
<defs>
<clipPath id="clip0_420_2417">
<rect width="35" height="39" fill="white"/>
</clipPath>
</defs>
</svg>
