<svg width="29" height="29" viewBox="0 0 29 29" fill="none" xmlns="http://www.w3.org/2000/svg">
<path d="M13.1501 9.10062L15.1751 7.07568V12.4755" stroke="#F05A28" stroke-width="2" stroke-linecap="round" stroke-linejoin="round"/>
<path d="M23.9498 5.05005L25.2309 5.47664C26.5673 5.92212 27.2356 6.14486 27.6176 6.6754C27.9996 7.20593 27.9996 7.91196 27.9996 9.31862V9.41716C27.9996 10.5781 27.9996 11.16 27.7202 11.6351C27.4408 12.1103 26.9318 12.3925 25.9167 12.9581L21.9248 15.1747M5.05036 5.05005L3.76925 5.47664C2.43279 5.92212 1.76456 6.14486 1.38253 6.6754C1.00049 7.20593 1.00049 7.91196 1.00049 9.31862V9.41716C1.00049 10.5781 1.00049 11.16 1.27993 11.6351C1.55937 12.1103 2.0683 12.3925 3.08347 12.9581L7.0753 15.1747" stroke="#F05A28" stroke-width="2"/>
<path d="M14.5 19.8999V23.9498" stroke="#F05A28" stroke-width="2" stroke-linecap="round"/>
<path d="M19.225 27.9989H9.77527L10.2343 25.7094C10.2954 25.4035 10.4606 25.1282 10.7018 24.9303C10.943 24.7324 11.2452 24.6242 11.5572 24.624H17.443C17.755 24.6242 18.0573 24.7324 18.2984 24.9303C18.5396 25.1282 18.7048 25.4035 18.766 25.7094L19.225 27.9989Z" stroke="#F05A28" stroke-width="2" stroke-linecap="round" stroke-linejoin="round"/>
<path d="M22.6 27.9995H6.40055M21.2501 1.61589C22.2504 1.80624 22.8444 2.01683 23.356 2.64861C24 3.43968 23.9662 4.29421 23.8974 6.00325C23.6544 12.1496 22.2774 19.8997 14.5017 19.8997C6.72589 19.8997 5.34759 12.151 5.10189 6.00325C5.0344 4.29421 5.00065 3.43833 5.64188 2.64861C6.28446 1.85753 7.05258 1.72794 8.59018 1.46875C10.5438 1.14873 12.5207 0.99204 14.5003 1.00031C15.4705 1.00211 16.3704 1.03271 17.2002 1.09211" stroke="#F05A28" stroke-width="2" stroke-linecap="round"/>
</svg>
