<svg width="16" height="15" viewBox="0 0 16 15" fill="none" xmlns="http://www.w3.org/2000/svg">
<path d="M12.9231 0H3.07692C1.12123 0 0 1.13875 0 3.125C0 4.82562 1.47631 6.76063 2.80185 7.43438L3.28431 7.67938C3.83446 9.54813 5.43323 10.9581 7.38462 11.2069V12.5C7.38462 13.1906 6.83385 13.75 6.15385 13.75H4.92308V15H11.0769V13.75H9.84615C9.16615 13.75 8.61539 13.1906 8.61539 12.5V11.2069C10.5668 10.9581 12.1655 9.54813 12.7157 7.67938L13.1982 7.43438C14.5237 6.76063 16 4.82562 16 3.125C16 1.13875 14.8788 0 12.9231 0ZM1.23077 3.125C1.23077 1.82812 1.8 1.25 3.07692 1.25V6.14375C2.10892 5.49375 1.23077 4.1 1.23077 3.125ZM11.6923 6.25C11.6923 8.31812 10.0363 10 8 10C5.96369 10 4.30769 8.31812 4.30769 6.25V1.25H11.6923V6.25ZM12.9231 6.14375V1.25C14.2 1.25 14.7692 1.82812 14.7692 3.125C14.7692 4.1 13.8911 5.49375 12.9231 6.14375ZM4.92308 6.25H6.15385C6.15385 7.28375 6.98215 8.125 8 8.125V9.375C6.30338 9.375 4.92308 7.97312 4.92308 6.25Z" fill="#008C95"/>
</svg>
