<svg width="21" height="48" viewBox="0 0 21 48" fill="none" xmlns="http://www.w3.org/2000/svg">
<path d="M16.7693 43.9051C14.7432 43.2597 12.7175 43.4551 11.4512 44.2778C11.9314 45.6528 13.4192 46.9609 15.4461 47.6036C17.4713 48.2474 19.4975 48.0537 20.7632 47.2302C20.2831 45.8559 18.7948 44.5453 16.7693 43.9051Z" fill="#77E2C3"/>
<path d="M15.2286 41.7265C16.2221 40.699 16.7117 38.9169 16.3813 37.0254C16.0512 35.1349 14.9886 33.6401 13.709 33.0352C12.7164 34.0617 12.2247 35.8447 12.5559 37.7361C12.8859 39.626 13.9495 41.1233 15.2286 41.7265Z" fill="#77E2C3"/>
<path d="M8.40774 36.1111C6.65883 35.0071 4.67402 34.7136 3.23438 35.2066C3.30234 36.6506 4.34965 38.2684 6.09867 39.3724C7.84723 40.4755 9.83156 40.7689 11.2717 40.2751C11.2031 38.8302 10.1564 37.2151 8.40774 36.1111Z" fill="#77E2C3"/>
<path d="M9.68158 26.0781C8.59514 26.88 7.85733 28.4695 7.86729 30.2834C7.87666 32.0975 8.631 33.6558 9.72588 34.4139C10.8127 33.6102 11.5501 32.0226 11.5403 30.2078C11.5305 28.3946 10.7761 26.837 9.68158 26.0781Z" fill="#77E2C3"/>
<path d="M6.85349 23.1327C8.1906 22.8608 9.57013 21.7334 10.3807 20.0891C11.1934 18.4447 11.2193 16.7218 10.5799 15.5791C9.24177 15.8519 7.86188 16.9783 7.05142 18.6245C6.23954 20.2671 6.21235 21.9908 6.85349 23.1327Z" fill="#77E2C3"/>
<path d="M4.89624 18.977C5.90428 18.1698 6.54717 16.6252 6.46538 14.8905C6.38499 13.1556 5.60147 11.6945 4.52241 11.0078C3.51424 11.8142 2.8703 13.3579 2.95233 15.0936C3.0319 16.8273 3.81671 18.2903 4.89624 18.977Z" fill="#77E2C3"/>
<path d="M14.9983 7.6943C13.7656 7.57125 12.2287 8.18039 11.0158 9.39211C9.80335 10.6037 9.23886 12.0941 9.42859 13.2584C10.6621 13.3814 12.1982 12.7723 13.4106 11.5605C14.623 10.3489 15.188 8.8602 14.9983 7.6943Z" fill="#77E2C3"/>
<path d="M11.3296 6.47105C11.8545 5.00305 11.7124 3.54875 11.0655 2.65039C9.96518 3.0152 8.91284 4.10375 8.38702 5.57269C7.86167 7.03894 8.00417 8.49418 8.65209 9.39254C9.75143 9.02586 10.8038 7.93906 11.3296 6.47105Z" fill="#77E2C3"/>
<path d="M17.2833 3.609C18.4174 2.48599 18.9505 1.10224 18.7775 0.0154465C17.6313 -0.102444 16.1994 0.45783 15.064 1.58166C13.9311 2.70373 13.3993 4.08924 13.5705 5.17345C14.7177 5.29299 16.1499 4.73271 17.2833 3.609Z" fill="#77E2C3"/>
<path d="M4.4862 24.7527C3.49455 23.2279 2.0037 22.3002 0.649593 22.2168C0.149203 23.4456 0.37514 25.158 1.36549 26.6812C2.35596 28.2052 3.84811 29.1337 5.20209 29.2163C5.7012 27.9866 5.47666 26.275 4.4862 24.7527Z" fill="#77E2C3"/>
</svg>
