<svg width="21" height="48" viewBox="0 0 21 48" fill="none" xmlns="http://www.w3.org/2000/svg">
<path d="M3.99445 43.9053C1.96887 44.5455 0.480937 45.8561 0 47.2304C1.26586 48.0539 3.29145 48.2476 5.31797 47.6039C7.34449 46.961 8.8323 45.6531 9.31242 44.278C8.04574 43.4552 6.02098 43.26 3.99445 43.9053Z" fill="#FCC217"/>
<path d="M4.38191 37.0255C4.05144 38.9169 4.54116 40.699 5.53503 41.7266C6.81378 41.1233 7.87831 39.6261 8.20784 37.7363C8.53831 35.8449 8.04695 34.0619 7.0539 33.0354C5.77433 33.6402 4.71238 35.1349 4.38191 37.0255Z" fill="#FCC217"/>
<path d="M12.3557 36.1117C10.6073 37.2157 9.56 38.8309 9.49121 40.2757C10.9317 40.7695 12.917 40.4761 14.6647 39.373C16.4141 38.2688 17.4622 36.6512 17.5302 35.2072C16.0904 34.7142 14.1052 35.0076 12.3557 36.1117Z" fill="#FCC217"/>
<path d="M11.0826 26.0781C9.98807 26.837 9.23257 28.3945 9.22472 30.2076C9.2144 32.0225 9.95186 33.6101 11.037 34.4137C12.1332 33.6556 12.8871 32.0973 12.8965 30.2832C12.9069 28.4693 12.1695 26.88 11.0826 26.0781Z" fill="#FCC217"/>
<path d="M10.1847 15.5789C9.54449 16.7217 9.56945 18.4445 10.3818 20.0888C11.1932 21.7332 12.5726 22.8606 13.9108 23.1324C14.5511 21.9906 14.5234 20.2669 13.712 18.6242C12.9022 16.978 11.5219 15.8517 10.1847 15.5789Z" fill="#FCC217"/>
<path d="M15.8687 18.9771C16.9478 18.2904 17.7326 16.8275 17.8126 15.0936C17.8944 13.358 17.2507 11.8142 16.2422 11.0079C15.1631 11.6946 14.38 13.1557 14.2991 14.8905C14.2165 16.6253 14.861 18.1699 15.8687 18.9771Z" fill="#FCC217"/>
<path d="M11.3342 13.2589C11.5244 12.0945 10.9589 10.6042 9.74745 9.39267C8.53409 8.18107 6.99811 7.57181 5.76413 7.69486C5.57569 8.86088 6.13937 10.3495 7.35261 11.5611C8.56503 12.7727 10.1002 13.382 11.3342 13.2589Z" fill="#FCC217"/>
<path d="M12.1128 9.39255C12.7599 8.49419 12.9026 7.03896 12.3769 5.57271C11.852 4.10377 10.7996 3.01521 9.69896 2.65041C9.05185 3.54877 8.90982 5.00306 9.43482 6.47107C9.96146 7.93919 11.012 9.02599 12.1128 9.39255Z" fill="#FCC217"/>
<path d="M7.19321 5.17345C7.36524 4.08924 6.83344 2.70385 5.70012 1.58166C4.56516 0.45783 3.13325 -0.102444 1.98704 0.0154465C1.81407 1.10224 2.34762 2.48599 3.48094 3.609C4.61426 4.73283 6.04606 5.2931 7.19321 5.17345Z" fill="#FCC217"/>
<path d="M20.1144 22.2169C18.7608 22.3004 17.2695 23.228 16.2782 24.7528C15.2869 26.2751 15.0632 27.9866 15.5623 29.2162C16.916 29.1335 18.4089 28.2051 19.3985 26.6811C20.3889 25.158 20.6144 23.4457 20.1144 22.2169Z" fill="#FCC217"/>
</svg>
