<svg width="21" height="48" viewBox="0 0 21 48" fill="none" xmlns="http://www.w3.org/2000/svg">
<path d="M4.23078 43.9051C2.2052 44.5453 0.717266 45.856 0.236328 47.2302C1.50219 48.0537 3.52777 48.2474 5.5543 47.6037C7.58082 46.9608 9.06863 45.6529 9.54875 44.2778C8.28207 43.455 6.2573 43.2598 4.23078 43.9051Z" fill="#77E2C3"/>
<path d="M4.61824 37.0253C4.28777 38.9167 4.77749 40.6988 5.77136 41.7264C7.05011 41.1231 8.11464 39.6259 8.44417 37.7361C8.77464 35.8447 8.28327 34.0617 7.29023 33.0352C6.01066 33.64 4.9487 35.1347 4.61824 37.0253Z" fill="#77E2C3"/>
<path d="M12.5911 36.1121C10.8427 37.2161 9.79535 38.8313 9.72656 40.2761C11.167 40.7699 13.1523 40.4765 14.9 39.3734C16.6494 38.2693 17.6975 36.6516 17.7655 35.2076C16.3257 34.7146 14.3406 35.008 12.5911 36.1121Z" fill="#77E2C3"/>
<path d="M11.3189 26.0781C10.2244 26.837 9.4689 28.3946 9.46104 30.2077C9.45073 32.0226 10.1882 33.6101 11.2733 34.4138C12.3695 33.6557 13.1234 32.0973 13.1329 30.2833C13.1432 28.4693 12.4058 26.88 11.3189 26.0781Z" fill="#77E2C3"/>
<path d="M10.422 15.5791C9.7818 16.7219 9.80676 18.4447 10.6191 20.0891C11.4305 21.7334 12.8099 22.8608 14.1481 23.1327C14.7884 21.9908 14.7607 20.2671 13.9493 18.6245C13.1395 16.9782 11.7592 15.8519 10.422 15.5791Z" fill="#77E2C3"/>
<path d="M16.1041 18.977C17.1831 18.2903 17.9679 16.8275 18.048 15.0936C18.1298 13.3579 17.4861 11.8142 16.4775 11.0078C15.3985 11.6945 14.6153 13.1556 14.5345 14.8905C14.4518 16.6252 15.0964 18.1698 16.1041 18.977Z" fill="#77E2C3"/>
<path d="M11.5705 13.2593C11.7607 12.095 11.1953 10.6046 9.98378 9.39308C8.77042 8.18148 7.23444 7.57222 6.00046 7.69527C5.81202 8.86129 6.37569 10.3499 7.58894 11.5615C8.80136 12.7731 10.3365 13.3824 11.5705 13.2593Z" fill="#77E2C3"/>
<path d="M12.3501 9.39254C12.9972 8.49418 13.1399 7.03895 12.6142 5.5727C12.0894 4.10375 11.0369 3.0152 9.93627 2.65039C9.28916 3.54875 9.14713 5.00305 9.67213 6.47105C10.1988 7.93918 11.2494 9.02598 12.3501 9.39254Z" fill="#77E2C3"/>
<path d="M7.42954 5.17345C7.60157 4.08924 7.06977 2.70385 5.93645 1.58166C4.80149 0.45783 3.36957 -0.102444 2.22336 0.0154465C2.0504 1.10224 2.58395 2.48599 3.71727 3.609C4.85059 4.73283 6.28239 5.2931 7.42954 5.17345Z" fill="#77E2C3"/>
<path d="M20.3517 22.2168C18.9981 22.3004 17.5068 23.2279 16.5155 24.7527C15.5242 26.275 15.3005 27.9865 15.7996 29.2162C17.1533 29.1334 18.6462 28.2051 19.6358 26.6811C20.6262 25.158 20.8517 23.4456 20.3517 22.2168Z" fill="#77E2C3"/>
</svg>
