<svg width="21" height="48" viewBox="0 0 21 48" fill="none" xmlns="http://www.w3.org/2000/svg">
<path d="M16.3767 43.9053C14.3506 43.26 12.3249 43.4553 11.0586 44.278C11.5388 45.6531 13.0266 46.9611 15.0535 47.6039C17.0788 48.2476 19.1049 48.0539 20.3707 47.2304C19.8905 45.8561 18.4023 44.5455 16.3767 43.9053Z" fill="#FCC217"/>
<path d="M14.836 41.7265C15.8295 40.699 16.3191 38.9169 15.9888 37.0254C15.6587 35.1349 14.596 33.6401 13.3164 33.0351C12.3238 34.0617 11.8321 35.8447 12.1633 37.7361C12.4933 39.626 13.5569 41.1233 14.836 41.7265Z" fill="#FCC217"/>
<path d="M8.01516 36.1117C6.26625 35.0076 4.28145 34.7142 2.8418 35.2072C2.90977 36.6512 3.95707 38.269 5.70609 39.373C7.45465 40.4761 9.43898 40.7695 10.8791 40.2757C10.8105 38.8308 9.76383 37.2157 8.01516 36.1117Z" fill="#FCC217"/>
<path d="M9.28901 26.0781C8.20256 26.88 7.46475 28.4694 7.47471 30.2833C7.48408 32.0974 8.23842 33.6558 9.3333 34.4138C10.4201 33.6102 11.1576 32.0225 11.1477 30.2078C11.1379 28.3945 10.3835 26.837 9.28901 26.0781Z" fill="#FCC217"/>
<path d="M6.46091 23.1324C7.79802 22.8606 9.17755 21.7332 9.98814 20.0888C10.8008 18.4445 10.8267 16.7216 10.1874 15.5789C8.84919 15.8517 7.46931 16.9781 6.65884 18.6242C5.84696 20.2669 5.81978 21.9906 6.46091 23.1324Z" fill="#FCC217"/>
<path d="M4.50366 18.9771C5.51171 18.1699 6.1546 16.6253 6.0728 14.8905C5.99241 13.1557 5.20889 11.6946 4.12983 11.0079C3.12167 11.8142 2.47772 13.358 2.55975 15.0936C2.63932 16.8274 3.42413 18.2904 4.50366 18.9771Z" fill="#FCC217"/>
<path d="M14.6057 7.69486C13.373 7.57182 11.8361 8.18096 10.6232 9.39267C9.41077 10.6043 8.84628 12.0947 9.03601 13.2589C10.2695 13.382 11.8056 12.7728 13.018 11.5611C14.2305 10.3495 14.7954 8.86076 14.6057 7.69486Z" fill="#FCC217"/>
<path d="M10.936 6.47119C11.4609 5.00318 11.3189 3.54889 10.6719 2.65053C9.57163 3.01533 8.51928 4.10389 7.99346 5.57283C7.46811 7.03908 7.61061 8.49432 8.25854 9.39268C9.35788 9.026 10.4102 7.9392 10.936 6.47119Z" fill="#FCC217"/>
<path d="M16.8907 3.60912C18.0248 2.48612 18.5579 1.10237 18.3849 0.0155686C17.2387 -0.102322 15.8068 0.457952 14.6714 1.58178C13.5385 2.70385 13.0067 4.08936 13.1779 5.17358C14.3251 5.29311 15.7574 4.73283 16.8907 3.60912Z" fill="#FCC217"/>
<path d="M4.09362 24.7528C3.10198 23.228 1.61112 22.3003 0.257015 22.2169C-0.243375 23.4457 -0.0174378 25.158 0.972914 26.6812C1.96338 28.2053 3.45553 29.1337 4.80952 29.2164C5.30862 27.9867 5.08409 26.2751 4.09362 24.7528Z" fill="#FCC217"/>
</svg>
