<svg width="9" height="7" viewBox="0 0 9 7" fill="none" xmlns="http://www.w3.org/2000/svg">
<path d="M8.25 3.09375C8.25 3.18492 8.21378 3.27235 8.14932 3.33682C8.08485 3.40128 7.99742 3.4375 7.90625 3.4375H0.34375C0.252582 3.4375 0.165148 3.40128 0.100682 3.33682C0.0362165 3.27235 0 3.18492 0 3.09375C0 3.00258 0.0362165 2.91515 0.100682 2.85068C0.165148 2.78622 0.252582 2.75 0.34375 2.75H7.90625C7.99742 2.75 8.08485 2.78622 8.14932 2.85068C8.21378 2.91515 8.25 3.00258 8.25 3.09375ZM0.34375 0.6875H7.90625C7.99742 0.6875 8.08485 0.651284 8.14932 0.586818C8.21378 0.522352 8.25 0.434918 8.25 0.34375C8.25 0.252582 8.21378 0.165148 8.14932 0.100682C8.08485 0.0362165 7.99742 0 7.90625 0H0.34375C0.252582 0 0.165148 0.0362165 0.100682 0.100682C0.0362165 0.165148 0 0.252582 0 0.34375C0 0.434918 0.0362165 0.522352 0.100682 0.586818C0.165148 0.651284 0.252582 0.6875 0.34375 0.6875ZM7.90625 5.5H0.34375C0.252582 5.5 0.165148 5.53622 0.100682 5.60068C0.0362165 5.66515 0 5.75258 0 5.84375C0 5.93492 0.0362165 6.02235 0.100682 6.08682C0.165148 6.15128 0.252582 6.1875 0.34375 6.1875H7.90625C7.99742 6.1875 8.08485 6.15128 8.14932 6.08682C8.21378 6.02235 8.25 5.93492 8.25 5.84375C8.25 5.75258 8.21378 5.66515 8.14932 5.60068C8.08485 5.53622 7.99742 5.5 7.90625 5.5Z" fill="white"/>
</svg>
