<svg width="20" height="10" viewBox="0 0 20 10" fill="none" xmlns="http://www.w3.org/2000/svg">
<path d="M20 5C20 5.14734 19.9122 5.28865 19.7559 5.39284C19.5996 5.49702 19.3877 5.55556 19.1667 5.55556H0.833333C0.61232 5.55556 0.400358 5.49702 0.244078 5.39284C0.0877975 5.28865 0 5.14734 0 5C0 4.85266 0.0877975 4.71135 0.244078 4.60716C0.400358 4.50298 0.61232 4.44444 0.833333 4.44444H19.1667C19.3877 4.44444 19.5996 4.50298 19.7559 4.60716C19.9122 4.71135 20 4.85266 20 5ZM0.833333 1.11111H19.1667C19.3877 1.11111 19.5996 1.05258 19.7559 0.948393C19.9122 0.844206 20 0.702898 20 0.555556C20 0.408213 19.9122 0.266905 19.7559 0.162719C19.5996 0.0585317 19.3877 0 19.1667 0H0.833333C0.61232 0 0.400358 0.0585317 0.244078 0.162719C0.0877975 0.266905 0 0.408213 0 0.555556C0 0.702898 0.0877975 0.844206 0.244078 0.948393C0.400358 1.05258 0.61232 1.11111 0.833333 1.11111ZM19.1667 8.88889H0.833333C0.61232 8.88889 0.400358 8.94742 0.244078 9.05161C0.0877975 9.15579 0 9.2971 0 9.44444C0 9.59179 0.0877975 9.7331 0.244078 9.83728C0.400358 9.94147 0.61232 10 0.833333 10H19.1667C19.3877 10 19.5996 9.94147 19.7559 9.83728C19.9122 9.7331 20 9.59179 20 9.44444C20 9.2971 19.9122 9.15579 19.7559 9.05161C19.5996 8.94742 19.3877 8.88889 19.1667 8.88889Z" fill="#D6D6D6"/>
</svg>
