<svg width="8" height="4" viewBox="0 0 8 4" fill="none" xmlns="http://www.w3.org/2000/svg">
<path id="Vector" d="M0.400241 5.21271e-05H7.60045C7.67334 0.000186275 7.7448 0.011988 7.80712 0.0341866C7.86944 0.0563853 7.92027 0.0881401 7.95413 0.126034C7.988 0.163927 8.00361 0.206524 7.9993 0.24924C7.99498 0.291955 7.97091 0.333171 7.92965 0.368451L4.32955 3.42083C4.18035 3.54739 3.82114 3.54739 3.67153 3.42083L0.0714315 0.368451C0.0297603 0.333244 0.00532331 0.292008 0.000775592 0.249221C-0.00377212 0.206435 0.0117434 0.163735 0.0456364 0.125761C0.0795294 0.0877876 0.130504 0.0559918 0.193021 0.0338292C0.255538 0.0116665 0.327207 -1.53971e-05 0.400241 5.21271e-05Z" fill="#008C95"/>
</svg>
