<svg width="17" height="21" viewBox="0 0 17 21" fill="none" xmlns="http://www.w3.org/2000/svg">
<path d="M15.8564 4.92812C15.0823 3.5874 13.9358 2.50009 12.556 1.79805C11.1762 1.09601 9.62232 0.809405 8.08285 0.972997C6.54338 1.13659 5.08444 1.74335 3.88299 2.71968C2.68153 3.69602 1.78917 4.99999 1.31413 6.47344C0.839092 7.9469 0.801784 9.52653 1.20673 11.0208C1.61168 12.515 2.44148 13.8597 3.59551 14.8916C4.74953 15.9236 6.17819 16.5985 7.70823 16.8346C9.23826 17.0707 10.8039 16.8578 12.2153 16.2217L14.6353 20.4132C14.7414 20.597 14.9162 20.7311 15.1211 20.786C15.326 20.8409 15.5444 20.8122 15.7282 20.7061C15.9119 20.6 16.046 20.4252 16.1009 20.2203C16.1558 20.0154 16.1271 19.797 16.021 19.6132L13.601 15.4217C15.2087 14.2617 16.3293 12.5467 16.7459 10.6085C17.1624 8.67017 16.8455 6.64627 15.8564 4.92812ZM12.1282 14.4707C11.0319 15.1036 9.77266 15.3972 8.50957 15.3144C7.24648 15.2316 6.03631 14.7762 5.03208 14.0056C4.02786 13.235 3.27468 12.184 2.8678 10.9853C2.46092 9.78671 2.41862 8.49435 2.74623 7.27168C3.07384 6.04901 3.75666 4.95095 4.70834 4.11635C5.66002 3.28175 6.83782 2.74809 8.09279 2.58287C9.34776 2.41765 10.6235 2.62829 11.7588 3.18813C12.8941 3.74798 13.8378 4.6319 14.4707 5.72812C15.3175 7.19853 15.5465 8.94481 15.1073 10.5838C14.6681 12.2228 13.5967 13.6207 12.1282 14.4707Z" fill="#D6D6D6"/>
</svg>
