<svg width="17" height="17" viewBox="0 0 17 17" fill="none" xmlns="http://www.w3.org/2000/svg">
<g clip-path="url(#clip0_375_148527)">
<path d="M13.8125 6.90625C13.8125 8.43027 13.3178 9.83809 12.4844 10.9803L16.6879 15.1871C17.1029 15.6021 17.1029 16.2762 16.6879 16.6912C16.2729 17.1063 15.5988 17.1063 15.1838 16.6912L10.9803 12.4844C9.83809 13.3211 8.43027 13.8125 6.90625 13.8125C3.09121 13.8125 0 10.7213 0 6.90625C0 3.09121 3.09121 0 6.90625 0C10.7213 0 13.8125 3.09121 13.8125 6.90625ZM6.90625 11.6875C7.53413 11.6875 8.15587 11.5638 8.73596 11.3235C9.31604 11.0833 9.84312 10.7311 10.2871 10.2871C10.7311 9.84312 11.0833 9.31604 11.3235 8.73596C11.5638 8.15587 11.6875 7.53413 11.6875 6.90625C11.6875 6.27837 11.5638 5.65663 11.3235 5.07654C11.0833 4.49646 10.7311 3.96938 10.2871 3.5254C9.84312 3.08142 9.31604 2.72923 8.73596 2.48895C8.15587 2.24867 7.53413 2.125 6.90625 2.125C6.27837 2.125 5.65663 2.24867 5.07654 2.48895C4.49646 2.72923 3.96938 3.08142 3.5254 3.5254C3.08142 3.96938 2.72923 4.49646 2.48895 5.07654C2.24867 5.65663 2.125 6.27837 2.125 6.90625C2.125 7.53413 2.24867 8.15587 2.48895 8.73596C2.72923 9.31604 3.08142 9.84312 3.5254 10.2871C3.96938 10.7311 4.49646 11.0833 5.07654 11.3235C5.65663 11.5638 6.27837 11.6875 6.90625 11.6875Z" fill="#F16E41"/>
</g>
<defs>
<clipPath id="clip0_375_148527">
<rect width="17" height="17" fill="white"/>
</clipPath>
</defs>
</svg>
