<svg width="10" height="12" viewBox="0 0 10 12" fill="none" xmlns="http://www.w3.org/2000/svg">
<path d="M8.59189 2.72158C8.17608 2.00139 7.56023 1.41732 6.81904 1.0402C6.07785 0.663089 5.24316 0.509133 4.4162 0.59701C3.58924 0.684886 2.80555 1.01082 2.16016 1.53528C1.51478 2.05973 1.03543 2.76019 0.780251 3.55168C0.525074 4.34318 0.505033 5.19171 0.722559 5.99437C0.940085 6.79703 1.38583 7.51933 2.00574 8.07367C2.62564 8.62802 3.39308 8.99058 4.21496 9.1174C5.03685 9.24422 5.87788 9.12984 6.63605 8.78814L7.936 11.0397C7.99298 11.1384 8.08685 11.2104 8.19694 11.2399C8.30702 11.2694 8.42432 11.254 8.52303 11.197C8.62173 11.14 8.69375 11.0462 8.72325 10.9361C8.75275 10.826 8.73731 10.7087 8.68032 10.61L7.38037 8.3584C8.24401 7.73529 8.84592 6.81407 9.0697 5.77288C9.29348 4.7317 9.12324 3.64452 8.59189 2.72158ZM6.58922 7.84756C6.00036 8.18753 5.32392 8.34526 4.64542 8.30078C3.96693 8.25631 3.31686 8.01165 2.77742 7.59772C2.23798 7.18379 1.8334 6.6192 1.61484 5.97533C1.39627 5.33147 1.37355 4.63725 1.54953 3.98047C1.72551 3.32369 2.0923 2.73384 2.60352 2.28552C3.11473 1.8372 3.74741 1.55054 4.42154 1.46179C5.09567 1.37303 5.78098 1.48618 6.39081 1.78691C7.00064 2.08765 7.50759 2.56246 7.84757 3.15132C8.30245 3.94118 8.42542 4.87923 8.18951 5.75965C7.95361 6.64007 7.37808 7.39096 6.58922 7.84756Z" fill="white"/>
</svg>
