<svg width="170" height="32" viewBox="0 0 170 32" fill="none" xmlns="http://www.w3.org/2000/svg">
<path d="M32.0491 13.8664C32.0491 13.8664 32.8447 4.87338 32.9207 3.98804C33.0406 2.57627 31.8972 0 29.1425 0H21.0103L16.1206 0.00398804H6.3852C3.63049 0.00398804 2.29512 1.87039 2.1192 3.64905C2.01525 4.70588 0.140136 26.4487 0.0201929 27.7009C-0.175715 29.7149 1.21563 31.996 3.75444 31.996H13.3099H17.3041H26.3758C29.3824 31.996 30.5458 30.4128 30.8057 27.9641C30.9576 26.5045 31.6973 17.651 31.6973 17.651H18.0237L17.428 24.4905H13.9696L15.4609 7.50548H18.9193L18.3676 13.8624H32.0451L32.0491 13.8664Z" fill="white"/>
<path d="M53.155 2.74767C52.6672 4.14748 48.6851 16.5742 48.6851 16.5742L50.4522 0.00789429H36.7827L33.916 31.9999H44.2232C46.8139 31.9999 47.6935 30.5363 48.1253 29.3638C48.6411 27.96 52.4313 17.5114 52.4313 17.5114L51.04 32.0039H64.7175L67.5362 0.00390625C67.5362 0.00390625 57.7328 0.00390625 56.7972 0.00390625C54.4344 0.00390625 53.4988 1.75067 53.151 2.74767H53.155Z" fill="white"/>
<path d="M122.43 0.00390625L121.147 14.5961H117.68L118.964 0.00390625H105.286C105.286 0.00390625 103.975 15.4496 103.839 16.9411C103.671 18.7237 104.679 21.2482 107.713 21.2482H120.571L120.283 24.4944H103.179L102.516 31.9999H129.731C131.57 31.9999 133.357 30.7995 133.597 28.2352C133.753 26.5882 136.104 0.00789429 136.104 0.00789429H122.426L122.43 0.00390625Z" fill="white"/>
<path d="M151.873 15.4456L152.569 7.50939H155.995L155.299 15.4456H151.873ZM158.122 0.00789429H139.551L136.74 31.9999H150.418L151.289 22.1016H156.187H155.28H164.579C166.926 22.1016 168.489 20.9052 168.741 18.1614C168.841 17.0966 169.921 4.96901 169.993 3.89623C170.157 1.53132 168.265 0.00390625 165.926 0.00390625H158.126L158.122 0.00789429Z" fill="white"/>
<path d="M85.9684 25.3439H82.4781L83.1738 17.4077H86.6641L85.9684 25.3439ZM83.7615 10.7517L84.0454 7.50939H101.177L101.829 0.00390625H71.0275L68.2168 31.9959H73.3504C73.3504 31.9959 93.8527 31.9959 95.508 31.9959C97.1632 31.9959 99.1183 30.971 99.3621 28.295C99.5461 26.289 100.386 16.7736 100.542 15.0508C100.745 12.7457 99.2782 10.7477 96.3995 10.7477H83.7535L83.7615 10.7517Z" fill="white"/>
</svg>
