<?xml version="1.0" encoding="UTF-8"?> <svg xmlns="http://www.w3.org/2000/svg" width="329" height="532" viewBox="0 0 329 532" fill="none"> <path d="M259.094 28.345C262.437 26.9818 265.876 25.8649 269.382 25.0033C271.957 24.382 274.602 24.1044 277.25 24.1778C280.648 24.0762 283.99 25.0609 286.79 26.9887C291.039 30.1534 291.924 34.8513 294.028 35.5393C294.028 35.5393 293.006 35.8931 291.353 36.3256C289.701 36.758 287.419 37.4657 284.862 37.9374C282.162 38.4762 279.413 38.7331 276.66 38.704C274.001 38.8138 271.352 38.3233 268.91 37.2691C265.67 35.9443 262.796 33.8612 260.53 31.1952C259.812 30.3863 259.317 29.4038 259.094 28.345Z" fill="#FDB724"></path> <path d="M259.094 28.3449C262.477 27.0372 265.763 25.4936 268.929 23.7256C271.248 22.4574 273.464 21.0116 275.558 19.4011C278.353 17.3097 280.484 14.4567 281.695 11.1846C283.466 6.07391 281.577 1.86738 283.092 0C283.092 0 281.931 0.294844 280.102 0.884544C277.745 1.72529 275.44 2.70325 273.198 3.8134C270.479 5.13638 267.896 6.72306 265.487 8.55063C263.235 10.3222 261.412 12.5801 260.157 15.1553C258.582 18.313 257.902 21.8408 258.19 25.3571C258.226 26.4146 258.538 27.4444 259.094 28.3449V28.3449Z" fill="#FDB724"></path> <path d="M228.901 42.6745C245.384 33.9469 254.354 35.2836 259.291 38.2124C264.228 41.1413 265.743 46.3306 268.143 46.9203C268.143 46.9203 267.061 47.4117 265.271 48.0604C262.996 49.0056 260.672 49.8258 258.308 50.5175C252.721 51.9721 246.014 53.3873 240.605 51.4413C236.929 50.2886 233.565 48.312 230.77 45.6623C229.896 44.8471 229.251 43.8167 228.901 42.6745V42.6745Z" fill="#FDB724"></path> <path d="M228.901 42.6746C245.266 34.006 250.538 27.2441 252.013 21.2685C253.489 15.2928 250.951 10.9487 252.446 8.72754C252.446 8.72754 251.167 9.17962 249.2 10.0249C246.681 11.2052 244.225 12.5175 241.844 13.9562C236.238 17.2782 230.337 22.4479 228.547 27.9517C227.09 31.6146 226.695 35.6133 227.406 39.4902C227.616 40.6643 228.132 41.7625 228.901 42.6746Z" fill="#FDB724"></path> <path d="M197.252 62.1347C214.345 50.3407 224.456 50.8714 230.278 53.643C236.1 56.4146 238.205 61.7612 240.978 62.1936C237.662 64.1733 234.18 65.8634 230.573 67.2454C227.482 68.5291 224.283 69.5356 221.013 70.2529C217.776 70.956 214.429 70.9894 211.178 70.3511C206.956 69.5908 202.976 67.8317 199.573 65.2207C198.555 64.4008 197.757 63.3401 197.252 62.1347V62.1347Z" fill="#FDB724"></path> <path d="M197.252 62.1347C214.227 50.4783 219.381 42.478 220.305 35.7358C221.23 28.9935 217.925 24.3939 219.322 21.7402C215.419 23.8083 211.677 26.1672 208.129 28.797C205.105 31.0904 202.358 33.7292 199.947 36.6596C197.582 39.2924 195.901 42.4647 195.049 45.8982C193.917 50.1506 193.979 54.6321 195.226 58.852C195.592 60.1089 196.292 61.2432 197.252 62.1347V62.1347Z" fill="#FDB724"></path> <path d="M164.836 87.6687C167 85.7031 168.986 84.0126 170.993 82.5777C172.999 81.1427 174.927 79.8847 176.697 78.8036C179.76 76.8679 183.068 75.3476 186.532 74.2826C190.927 72.7252 195.709 72.6287 200.163 74.0074C207.028 76.4644 209.998 82.1256 213.086 82.2631C213.086 82.2631 211.926 83.1281 209.979 84.3664C208.031 85.6048 205.395 87.3739 202.307 89.0447C196.033 92.2684 188.538 95.7673 181.457 94.9417C176.708 94.6468 172.094 93.2467 167.983 90.8531C166.667 90.0936 165.58 88.9935 164.836 87.6687V87.6687Z" fill="#FDB724"></path> <path d="M164.836 87.6687C182.008 72.5724 186.728 63.0782 186.846 55.4711C186.964 47.864 182.912 43.3036 184.132 40.2175C184.132 40.2175 182.716 41.1218 180.532 42.6943C177.741 44.7447 175.111 47.0052 172.664 49.4562C166.763 54.96 161.039 62.8424 160.312 69.9974C159.64 74.8445 160.321 79.7829 162.279 84.2681C162.817 85.6067 163.699 86.7798 164.836 87.6687V87.6687Z" fill="#FDB724"></path> <path d="M132.734 120.377C134.819 117.979 136.786 115.797 138.753 113.871C140.72 111.945 142.687 110.352 144.497 108.898C146.307 107.443 148.077 106.185 149.729 105.104C151.306 104.162 152.935 103.309 154.607 102.549C159.22 100.169 164.501 99.4136 169.596 100.406C177.464 102.175 181.575 108.013 184.919 107.738C184.919 107.738 183.778 108.858 181.831 110.49C180.847 111.316 179.667 112.279 178.329 113.281C176.992 114.284 175.595 115.502 174.022 116.623C167.649 121.046 159.781 125.881 151.972 125.881C146.703 126.234 141.424 125.359 136.55 123.326C135.041 122.696 133.724 121.679 132.734 120.377V120.377Z" fill="#FDB724"></path> <path d="M132.734 120.377C134.819 117.979 136.668 115.66 138.34 113.497C140.012 111.335 141.625 109.37 142.962 107.443C144.3 105.517 145.48 103.689 146.483 101.939C147.466 100.389 148.365 98.7883 149.178 97.1431C151.646 92.4393 152.782 87.1516 152.463 81.8502C151.755 73.6534 146.424 68.9161 147.408 65.3386C147.408 65.3386 145.952 66.5377 143.769 68.6016C142.667 69.6238 141.389 70.8621 140.012 72.2774C138.635 73.6927 137.258 75.4028 135.842 77.1523C130.059 84.1304 124.827 93.6442 125.043 101.644C125.259 109.645 127.443 114.461 129.252 117.114C130.095 118.497 131.299 119.625 132.734 120.377V120.377Z" fill="#FDB724"></path> <path d="M102.482 161.302C104.449 158.354 106.416 155.681 108.166 153.243C109.84 150.979 111.667 148.831 113.635 146.815C116.66 143.574 120.061 140.704 123.765 138.265C128.493 135.041 134.136 133.428 139.855 133.665C148.805 134.471 154.174 140.309 157.813 139.562C157.813 139.562 156.712 140.938 154.824 143.002C152.935 145.066 150.358 147.956 147.231 150.865C145.697 152.339 143.946 153.774 142.195 155.209C140.471 156.704 138.643 158.077 136.727 159.317C134.859 160.546 132.884 161.606 130.826 162.482C128.869 163.421 126.79 164.083 124.65 164.447C116.231 165.764 110.625 165.116 107.202 164.015C105.42 163.535 103.793 162.601 102.482 161.302V161.302Z" fill="#FDB724"></path> <path d="M102.482 161.303C117.785 137.715 120.499 124.879 118.218 115.719C115.936 106.559 109.661 102.372 110.35 98.2637C110.35 98.2637 108.914 99.8165 106.77 102.411C104.009 105.787 101.511 109.369 99.295 113.124C97.9216 115.342 96.6675 117.632 95.538 119.984C94.4283 122.409 93.4628 124.896 92.6465 127.434C91.8678 129.85 91.3018 132.33 90.9549 134.845C90.7049 137.196 90.7844 139.572 91.1909 141.901C92.8432 150.806 95.7544 155.661 98.1541 158.197C99.2935 159.599 100.788 160.672 102.482 161.303V161.303Z" fill="#FDB724"></path> <path d="M76.2026 211.446C77.7762 207.843 79.3433 204.567 80.9038 201.618C82.5364 198.65 84.228 196.036 85.8606 193.638C87.3239 191.41 88.9339 189.283 90.6798 187.269C92.1923 185.584 93.8084 183.996 95.5186 182.512C100.124 178.084 106.108 175.365 112.474 174.806C122.309 174.197 129.135 179.681 133.049 178.325L130.394 182.591C128.761 185.205 126.263 188.645 123.371 192.419C120.379 196.376 117.021 200.041 113.34 203.368C109.784 206.759 105.537 209.34 100.888 210.935C91.9583 213.864 85.7229 214.139 81.7889 213.55C79.7752 213.347 77.8494 212.622 76.2026 211.446V211.446Z" fill="#FDB724"></path> <path d="M76.2026 211.446C77.7762 207.843 79.14 204.455 80.294 201.284C81.5135 198.119 82.6347 195.21 83.5199 192.439C84.405 189.667 85.0738 187.053 85.7426 184.576C86.4114 182.099 86.8441 179.937 87.1785 177.834C88.3784 169.362 87.6899 163.307 85.7819 158.511C82.084 148.978 73.9799 145.125 74.1176 140.545C72.9376 142.211 71.854 143.944 70.8721 145.734C68.4203 149.952 66.2327 154.318 64.322 158.806C62.0505 164.26 60.3945 169.949 59.3848 175.77C58.4156 181.168 58.705 186.718 60.2306 191.986C63.6728 201.54 67.7445 206.237 70.8524 208.714C72.3606 210.085 74.2076 211.028 76.2026 211.446V211.446Z" fill="#FDB724"></path> <path d="M56.8276 271.222C57.8701 266.977 58.9717 263.085 60.0929 259.429C61.2278 256.136 62.5411 252.908 64.0269 249.757C66.2195 244.741 69.0848 240.046 72.544 235.801C73.8924 234.182 75.3515 232.658 76.9107 231.241C78.3016 230.023 79.7882 228.919 81.3561 227.939C83.9276 226.291 86.7614 225.095 89.7356 224.4C94.3943 223.441 99.1999 223.441 103.859 224.4C107.793 225.049 110.959 225.698 112.946 224.617C112.946 224.617 112.159 226.582 110.743 229.668C109.023 233.718 107.052 237.657 104.842 241.462C102.348 246.331 99.3768 250.94 95.971 255.222C92.7253 259.565 88.5872 263.165 83.8346 265.778C74.6487 270.652 67.8625 272.186 63.4171 272.304C61.164 272.518 58.8938 272.146 56.8276 271.222V271.222Z" fill="#FDB724"></path> <path d="M56.8276 271.222C57.8701 266.977 58.7946 263.026 59.365 259.311C59.9355 255.595 60.7813 252.214 61.1943 249.01C62.0171 243.525 62.4444 237.987 62.4729 232.44C62.4337 230.23 62.2629 228.025 61.9615 225.835C61.78 223.947 61.4579 222.074 60.9976 220.233C60.2392 217.149 59.0261 214.194 57.398 211.466C54.8049 207.351 51.4702 203.751 47.563 200.852C44.4158 198.296 41.8587 196.35 41.4653 193.795C41.4653 193.795 40.3048 196.173 38.7312 200.085C36.8441 205.239 35.2289 210.488 33.8924 215.81C32.4141 222.259 31.6555 228.851 31.6303 235.467C31.5267 241.592 32.8747 247.654 35.5643 253.158C41.1506 262.986 46.5008 267.311 50.3758 269.414C52.3215 270.593 54.5523 271.218 56.8276 271.222V271.222Z" fill="#FDB724"></path> <path d="M48.094 340.473C48.7628 321.052 52.6771 307.587 57.693 298.663C59.7381 294.784 62.3948 291.26 65.561 288.225C68.0691 285.933 70.9406 284.074 74.0584 282.722C78.9716 280.763 84.231 279.82 89.519 279.95C94.0038 279.95 97.5641 279.95 99.5311 278.456C99.5311 278.456 99 280.717 98.1738 284.353C97.7608 286.181 97.2297 288.284 96.5412 290.682C95.8528 293.081 94.9873 295.597 94.2005 298.309C92.3596 304.027 90.064 309.587 87.3357 314.939C85.9083 317.626 84.2498 320.185 82.3788 322.585C80.6385 324.939 78.6023 327.06 76.3205 328.895C72.5293 331.936 68.4743 334.633 64.2037 336.954C61.4413 338.463 58.4915 339.599 55.4309 340.335C53.0389 341.018 50.51 341.066 48.094 340.473V340.473Z" fill="#FDB724"></path> <path d="M48.0941 340.473C48.7629 321.091 48.0941 307.273 46.1271 296.933C45.2609 292.437 43.8747 288.057 41.9964 283.881C40.5862 280.649 38.6963 277.647 36.3904 274.977C28.0897 265.325 17.3302 264.185 15.4812 258.701L14.9501 260.667C14.6157 261.945 14.1633 263.832 13.7699 266.171C13.3765 268.51 12.9045 271.301 12.4914 274.387C12.009 277.716 11.7134 281.07 11.6062 284.432C11.1811 291.844 11.6899 299.28 13.1208 306.565C13.7978 310.047 14.8055 313.457 16.1303 316.747C17.4019 319.771 19.0902 322.603 21.1462 325.16C24.3178 329.103 28.0254 332.583 32.1614 335.5C34.7902 337.355 37.6895 338.793 40.7572 339.765C43.093 340.663 45.6296 340.908 48.0941 340.473V340.473Z" fill="#FDB724"></path> <path d="M54.0343 417.763C50.1003 396.514 51.5559 380.965 54.9391 370.154C55.7096 367.657 56.6628 365.219 57.7913 362.862C58.8171 360.839 60.001 358.9 61.3319 357.063C63.5025 353.98 66.215 351.316 69.3376 349.2C80.6478 341.672 92.6072 343.421 96.1085 339.234C96.1085 339.234 96.1085 341.79 95.9708 345.878C95.8331 349.967 95.4397 355.569 94.5939 361.741C93.0203 374.105 90.2468 388.749 81.9854 398.597C73.724 408.445 66.9378 413.615 61.981 415.817C59.5451 417.141 56.8071 417.812 54.0343 417.763V417.763Z" fill="#FDB724"></path> <path d="M54.0348 417.763C50.1008 396.573 46.4422 381.673 41.8787 370.842C40.8311 368.324 39.6357 365.869 38.2988 363.491C37.1943 361.408 35.9455 359.405 34.5615 357.496C32.2481 354.319 29.5229 351.464 26.4574 349.004C15.5012 340.217 3.48285 341.279 0.197961 335.677C0.197961 335.677 -0.0184058 338.999 0.00126425 344.326C0.00126425 346.979 0.00125974 350.223 0.29631 353.623C0.59136 357.024 0.965088 360.916 1.51585 364.867C2.06661 368.818 3.03044 372.926 4.05328 376.995C5.14565 381.01 6.4992 384.95 8.10531 388.789C9.63748 392.482 11.5492 396.007 13.8096 399.305C15.8361 402.357 18.3245 405.076 21.1859 407.365C32.1421 415.994 40.4821 418.274 45.9307 418.746C48.6713 419.155 51.4716 418.815 54.0348 417.763V417.763Z" fill="#FDB724"></path> <path d="M79.9988 499.849C70.1638 477.952 67.6854 460.752 68.6886 448.25C69.6918 435.749 74.0585 427.611 79.212 422.186C83.8398 417.616 89.347 414.032 95.4005 411.65C100.436 409.409 104.488 407.718 105.944 405.183C105.944 405.183 106.593 407.895 107.261 412.298C107.93 416.701 108.914 422.716 109.642 429.439C110.881 442.943 111.471 459.219 105.176 471.897C103.583 475.062 101.951 477.912 100.436 480.428C99.0844 482.729 97.6069 484.954 96.0102 487.092C93.7294 490.263 91.0523 493.13 88.0439 495.623C85.7759 497.707 83.0029 499.164 79.9988 499.849V499.849Z" fill="#FDB724"></path> <path d="M79.9987 499.849C70.1637 478.03 62.2957 462.855 54.7228 452.241C53.7589 450.924 52.7558 449.666 51.8313 448.486C50.9068 447.307 49.9823 446.167 49.0578 445.125C47.3259 443.132 45.4595 441.26 43.4715 439.523C40.2263 436.591 36.5844 434.129 32.653 432.21C26.5557 429.437 20.0033 427.798 13.3174 427.375C7.77046 426.825 3.36437 426.51 0.925293 423.778C0.925293 423.778 1.47605 427.493 2.71526 433.37C4.44932 440.945 6.73718 448.382 9.56043 455.622C12.8908 464.426 17.3328 472.769 22.7787 480.448C28.2666 487.937 34.6987 494.208 41.8192 497.372C47.4865 500.146 53.5307 502.074 59.7583 503.092C63.6615 503.753 67.6446 503.792 71.5603 503.21C74.625 502.871 77.5408 501.71 79.9987 499.849V499.849Z" fill="#FDB724"></path> <path d="M328.864 8.05909C326.212 10.2295 323.376 12.1633 320.386 13.8382C317.848 15.2195 315.219 16.4278 312.518 17.455C308.103 19.0974 303.456 20.0327 298.749 20.2266C294.193 20.566 289.615 20.0391 285.255 18.6737C288.194 15.0985 291.827 12.1562 295.936 10.0248C300.232 7.80854 304.899 6.40257 309.705 5.87723C312.677 5.50414 315.683 5.50414 318.655 5.87723C322.121 6.26923 325.54 7 328.864 8.05909Z" fill="#FDB724"></path> <path d="M328.864 8.05908L318.577 10.0247C316.865 10.3786 315.154 10.6734 313.443 11.0666L308.348 12.3049C304.965 13.1698 301.542 13.9168 298.199 14.8603L288.127 17.8088C274.769 21.912 261.694 26.8827 248.984 32.6889L244.204 34.8511C242.631 35.5784 241.096 36.404 239.523 37.1706L230.18 41.9078C224.102 45.3674 217.906 48.6108 212.044 52.4242C209.113 54.2915 206.143 56.0213 203.212 58.0263L194.557 63.9233C191.666 65.889 188.951 68.0709 186.119 70.1348C183.286 72.1987 180.533 74.3217 177.857 76.5625L169.753 83.2065L161.885 90.2043C159.25 92.4844 156.771 94.9415 154.273 97.3789C151.775 99.8164 149.198 102.195 146.838 104.75C137.145 114.814 128.023 125.413 119.516 136.496C102.661 158.817 88.5173 183.06 77.3829 208.714C74.4521 215.063 72.1311 221.648 69.5149 228.135L66.112 237.963L64.4204 242.917L62.9452 247.949L60.034 257.993L57.5162 268.176C57.1228 269.866 56.6704 271.557 56.2967 273.267L55.2739 278.476C54.6051 281.896 53.8773 285.316 53.3069 288.736L51.6939 299.096C51.4382 300.825 51.1432 302.535 50.9268 304.265L50.3564 309.474C49.9826 312.953 49.5696 316.413 49.2352 319.892L48.5467 330.33L48.2123 335.559L48.0943 340.807L47.8779 351.264L48.0353 361.741C48.0353 365.22 48.3697 368.719 48.5074 372.199C51.6614 428.217 68.0335 482.695 96.2858 531.182" stroke="#FDB724" stroke-width="0.938637" stroke-miterlimit="10"></path> </svg> 