<?xml version="1.0" encoding="UTF-8"?> <svg xmlns="http://www.w3.org/2000/svg" width="330" height="532" viewBox="0 0 330 532" fill="none"> <path d="M70.651 28.3449C67.27 27.0335 63.9838 25.49 60.816 23.7256C58.4979 22.4574 56.2817 21.0116 54.1872 19.4011C51.3911 17.3158 49.265 14.4602 48.0698 11.1846C46.2798 6.07391 48.1682 1.86738 46.6536 0C46.6536 0 47.8141 0.294844 49.6631 0.884544C52.0117 1.72937 54.3103 2.70725 56.5476 3.8134C59.2668 5.13638 61.8494 6.72306 64.2582 8.55063C66.5109 10.3222 68.3332 12.5801 69.5888 15.1553C71.1971 18.3034 71.9114 21.8318 71.6541 25.3571C71.5877 26.4237 71.2418 27.4541 70.651 28.3449V28.3449Z" fill="#FDB724"></path> <path d="M70.651 28.345C67.308 26.9818 63.8697 25.8649 60.3636 25.0033C57.7889 24.382 55.1432 24.1044 52.4956 24.1778C49.0973 24.0762 45.7552 25.0609 42.9556 26.9887C38.7069 30.1534 37.8217 34.8513 35.717 35.5393C35.717 35.5393 36.7399 35.8931 38.3922 36.3256C40.0444 36.758 42.3261 37.4657 44.8832 37.9374C47.5834 38.4762 50.3323 38.7331 53.0857 38.704C55.7441 38.8138 58.393 38.3233 60.8356 37.2691C64.0752 35.9443 66.949 33.8612 69.2151 31.1952C69.9339 30.3863 70.4289 29.4038 70.651 28.345V28.345Z" fill="#FDB724"></path> <path d="M100.825 42.6746C84.4594 34.006 79.1878 27.2441 77.7125 21.2685C76.2373 15.2928 78.7944 10.9487 77.2798 8.72754C77.2798 8.72754 78.5584 9.17962 80.5254 10.0249C83.045 11.2052 85.5006 12.5175 87.8819 13.9562C93.4879 17.2388 99.3496 22.3692 101.179 27.9124C102.636 31.5753 103.031 35.574 102.32 39.4509C102.116 40.6388 101.6 41.7513 100.825 42.6746V42.6746Z" fill="#FDB724"></path> <path d="M100.825 42.6745C84.3412 33.9469 75.3717 35.2836 70.4345 38.2124C65.4973 41.1413 63.9827 46.3306 61.583 46.9203C61.583 46.9203 62.6649 47.4117 64.4548 48.0604C66.7294 49.0056 69.0539 49.8258 71.418 50.5175C77.0043 51.9721 83.7118 53.3873 89.121 51.4413C92.797 50.2886 96.1609 48.312 98.956 45.6623C99.83 44.8471 100.474 43.8167 100.825 42.6745V42.6745Z" fill="#FDB724"></path> <path d="M132.474 62.1347C115.499 50.4783 110.345 42.478 109.421 35.7358C108.496 28.9935 111.801 24.3939 110.404 21.7402C114.307 23.8083 118.048 26.1672 121.596 28.797C124.625 31.0851 127.372 33.7245 129.779 36.6596C132.143 39.2924 133.825 42.4647 134.677 45.8982C135.808 50.1506 135.747 54.6321 134.5 58.852C134.133 60.1089 133.433 61.2432 132.474 62.1347V62.1347Z" fill="#FDB724"></path> <path d="M132.474 62.1347C115.381 50.3407 105.27 50.8714 99.4676 53.643C93.6649 56.4146 91.4422 61.8398 88.7671 62.1936C92.0756 64.1758 95.5507 65.8661 99.1529 67.2454C102.244 68.5291 105.443 69.5356 108.712 70.2529C111.95 70.956 115.297 70.9894 118.547 70.3511C122.775 69.5857 126.759 67.8273 130.172 65.2207C131.184 64.3984 131.974 63.338 132.474 62.1347V62.1347Z" fill="#FDB724"></path> <path d="M164.89 87.6687C147.718 72.5724 142.997 63.0782 142.899 55.4711C142.801 47.864 146.833 43.3036 145.594 40.2175C145.594 40.2175 147.01 41.1218 149.193 42.6943C152.018 44.7407 154.682 47.0013 157.16 49.4562C163.061 54.96 168.785 62.8424 169.513 69.9974C170.184 74.8445 169.503 79.7829 167.546 84.2681C166.98 85.6182 166.063 86.7924 164.89 87.6687V87.6687Z" fill="#FDB724"></path> <path d="M164.89 87.6687C162.726 85.703 160.74 84.0125 158.733 82.5776C156.727 81.1427 154.799 79.8846 153.029 78.8035C149.966 76.8678 146.658 75.3475 143.194 74.2825C138.805 72.7295 134.031 72.633 129.583 74.0073C122.698 76.4644 119.748 82.1255 116.64 82.2631C116.64 82.2631 117.8 83.128 119.748 84.3664C121.695 85.6047 124.331 87.3738 127.419 89.0446C133.694 92.2683 141.188 95.7672 148.269 94.9416C153.018 94.6467 157.632 93.2466 161.743 90.8531C163.059 90.0935 164.147 88.9934 164.89 87.6687V87.6687Z" fill="#FDB724"></path> <path d="M197.011 120.377C194.906 117.979 193.077 115.66 191.386 113.497C189.694 111.335 188.12 109.37 186.763 107.443C185.406 105.517 184.245 103.689 183.242 101.939C182.239 100.19 181.275 98.6174 180.547 97.0645C178.08 92.3607 176.944 87.073 177.262 81.7716C177.971 73.5748 183.301 68.8375 182.318 65.26C182.318 65.26 183.773 66.4591 185.957 68.523C187.058 69.5452 188.337 70.7835 189.714 72.1988C191.09 73.6141 192.467 75.3242 193.884 77.0736C199.667 84.0518 204.899 93.5656 204.682 101.566C204.466 109.566 202.283 114.382 200.473 117.036C199.645 118.444 198.448 119.599 197.011 120.377V120.377Z" fill="#FDB724"></path> <path d="M197.011 120.377C194.906 117.979 192.939 115.797 190.992 113.871C189.044 111.945 187.058 110.352 185.228 108.898C183.399 107.443 181.649 106.185 179.996 105.104C178.419 104.162 176.791 103.309 175.118 102.549C170.506 100.169 165.225 99.4136 160.13 100.406C152.262 102.175 148.151 108.013 144.807 107.738C144.807 107.738 145.947 108.858 147.895 110.49C148.878 111.316 150.058 112.279 151.396 113.281C152.734 114.284 154.13 115.502 155.704 116.623C162.097 121.046 169.945 125.881 177.754 125.881C183.023 126.236 188.303 125.361 193.175 123.326C194.688 122.692 196.01 121.676 197.011 120.377Z" fill="#FDB724"></path> <path d="M227.323 161.303C212.019 137.715 209.305 124.879 211.587 115.719C213.868 106.559 220.143 102.372 219.553 98.2637C219.553 98.2637 220.989 99.8165 223.133 102.411C225.893 105.787 228.392 109.369 230.608 113.124C231.981 115.342 233.235 117.632 234.365 119.984C235.474 122.409 236.44 124.896 237.256 127.434C238.035 129.85 238.601 132.33 238.948 134.845C239.198 137.196 239.118 139.572 238.712 141.901C237.059 150.806 234.148 155.661 231.748 158.197C230.582 159.614 229.052 160.687 227.323 161.303V161.303Z" fill="#FDB724"></path> <path d="M227.323 161.302C225.356 158.354 223.487 155.681 221.638 153.243C219.964 150.979 218.137 148.831 216.17 146.815C213.144 143.574 209.743 140.704 206.04 138.265C201.296 135.026 195.63 133.412 189.891 133.665C180.941 134.471 175.571 140.309 171.932 139.562C171.932 139.562 173.033 140.938 174.922 143.002C176.81 145.066 179.387 147.956 182.514 150.865C184.068 152.339 185.799 153.774 187.55 155.209C189.278 156.699 191.105 158.072 193.018 159.317C194.918 160.552 196.926 161.611 199.018 162.482C200.975 163.421 203.054 164.083 205.194 164.447C213.613 165.764 219.219 165.116 222.641 164.015C224.409 163.529 226.022 162.595 227.323 161.302V161.302Z" fill="#FDB724"></path> <path d="M253.582 211.446C251.989 207.849 250.632 204.468 249.471 201.284C248.31 198.1 247.13 195.21 246.245 192.439C245.36 189.667 244.691 187.053 244.022 184.576C243.354 182.099 242.921 179.937 242.586 177.834C241.387 169.362 242.095 163.307 243.983 158.511C247.681 148.978 255.785 145.125 255.647 140.545C256.827 142.211 257.911 143.944 258.893 145.734C261.345 149.952 263.532 154.318 265.443 158.806C267.715 164.26 269.37 169.949 270.38 175.77C271.36 181.168 271.071 186.719 269.534 191.986C266.092 201.54 262.02 206.237 258.913 208.714C257.41 210.082 255.57 211.025 253.582 211.446V211.446Z" fill="#FDB724"></path> <path d="M253.582 211.447C251.982 207.843 250.409 204.567 248.861 201.618C247.229 198.65 245.537 196.036 243.904 193.638C242.433 191.43 240.816 189.322 239.066 187.328C237.553 185.643 235.937 184.055 234.227 182.571C229.621 178.143 223.638 175.424 217.271 174.866C207.436 174.256 200.611 179.74 196.696 178.384L199.352 182.65C200.984 185.264 203.482 188.704 206.374 192.478C209.366 196.435 212.725 200.101 216.406 203.427C219.964 206.814 224.211 209.395 228.857 210.995C237.787 213.923 244.022 214.199 247.956 213.609C249.987 213.387 251.926 212.642 253.582 211.447V211.447Z" fill="#FDB724"></path> <path d="M272.898 271.222C271.856 266.977 270.931 263.026 270.361 259.311C269.79 255.595 268.945 252.214 268.531 249.01C267.728 243.522 267.301 237.986 267.253 232.44C267.292 230.23 267.463 228.025 267.764 225.835C267.962 223.947 268.29 222.075 268.748 220.233C269.492 217.147 270.699 214.191 272.328 211.466C274.921 207.351 278.256 203.751 282.163 200.852C285.31 198.296 287.867 196.35 288.26 193.795C288.26 193.795 289.421 196.173 290.995 200.085C292.882 205.239 294.497 210.488 295.833 215.81C297.309 222.26 298.074 228.851 298.115 235.467C298.179 241.598 296.797 247.659 294.083 253.158C288.497 262.986 283.146 267.311 279.271 269.414C277.349 270.579 275.147 271.204 272.898 271.222Z" fill="#FDB724"></path> <path d="M272.898 271.223C271.856 266.977 270.754 263.085 269.633 259.429C268.498 256.136 267.185 252.908 265.699 249.758C263.514 244.737 260.648 240.041 257.182 235.801C255.849 234.157 254.403 232.606 252.854 231.162C251.463 229.944 249.977 228.84 248.409 227.86C245.843 226.217 243.016 225.02 240.049 224.322C235.384 223.362 230.572 223.362 225.906 224.322C221.972 224.971 218.806 225.619 216.819 224.538C216.819 224.538 217.606 226.504 219.022 229.59C220.742 233.64 222.713 237.579 224.923 241.384C227.417 246.253 230.388 250.862 233.794 255.143C237.04 259.487 241.178 263.086 245.93 265.699C255.116 270.574 261.922 272.107 266.348 272.225C268.581 272.457 270.837 272.112 272.898 271.223V271.223Z" fill="#FDB724"></path> <path d="M281.632 340.473C280.963 321.091 281.632 307.273 283.599 296.933C284.474 292.44 285.86 288.061 287.729 283.881C289.14 280.649 291.03 277.647 293.335 274.977C301.636 265.325 312.396 264.185 314.245 258.701L314.776 260.667C315.11 261.945 315.563 263.832 315.956 266.171C316.349 268.51 316.821 271.301 317.234 274.387C317.717 277.716 318.012 281.07 318.12 284.432C318.545 291.844 318.036 299.28 316.605 306.565C315.928 310.047 314.92 313.457 313.596 316.747C312.348 319.767 310.687 322.598 308.658 325.16C305.487 329.103 301.779 332.583 297.643 335.5C295.014 337.355 292.115 338.793 289.047 339.765C286.688 340.678 284.122 340.922 281.632 340.473V340.473Z" fill="#FDB724"></path> <path d="M281.631 340.473C280.963 321.052 277.048 307.587 272.032 298.663C269.994 294.78 267.336 291.255 264.164 288.225C261.656 285.933 258.785 284.074 255.667 282.722C250.754 280.763 245.494 279.82 240.206 279.95C235.722 279.95 232.161 279.95 230.194 278.456C230.194 278.456 230.725 280.717 231.552 284.353C231.965 286.181 232.496 288.284 233.184 290.682C233.873 293.081 234.738 295.597 235.525 298.309C237.375 304.014 239.677 309.561 242.409 314.9C243.823 317.591 245.475 320.15 247.347 322.546C249.087 324.9 251.123 327.021 253.405 328.856C257.198 331.876 261.253 334.554 265.522 336.856C268.284 338.364 271.234 339.501 274.295 340.237C276.678 340.952 279.207 341.034 281.631 340.473Z" fill="#FDB724"></path> <path d="M275.691 417.763C279.625 396.573 283.284 381.673 287.847 370.842C288.895 368.324 290.09 365.869 291.427 363.491C292.532 361.408 293.781 359.405 295.165 357.496C297.478 354.319 300.203 351.464 303.269 349.004C314.225 340.217 326.243 341.279 329.548 335.677C329.548 335.677 329.744 338.999 329.725 344.326C329.725 346.979 329.725 350.223 329.43 353.623C329.135 357.024 328.761 360.916 328.21 364.867C327.659 368.818 326.696 372.926 325.673 376.995C324.58 381.01 323.227 384.95 321.621 388.789C320.096 392.486 318.184 396.011 315.916 399.305C313.89 402.357 311.401 405.076 308.54 407.365C297.584 415.994 289.244 418.274 283.795 418.746C281.055 419.155 278.254 418.815 275.691 417.763Z" fill="#FDB724"></path> <path d="M275.691 417.763C279.625 396.514 278.17 380.965 274.787 370.154C274.025 367.654 273.071 365.216 271.934 362.862C270.909 360.839 269.725 358.9 268.394 357.063C266.229 353.975 263.515 351.31 260.388 349.2C249.078 341.672 237.118 343.421 233.617 339.234C233.617 339.234 233.617 341.79 233.755 345.878C233.893 349.967 234.286 355.569 235.132 361.741C236.705 374.105 239.479 388.749 247.74 398.597C256.002 408.445 262.807 413.478 267.745 415.758C270.175 417.103 272.913 417.794 275.691 417.763V417.763Z" fill="#FDB724"></path> <path d="M249.648 499.849C259.483 478.03 267.351 462.855 274.924 452.241C275.888 450.924 276.891 449.666 277.816 448.486C278.74 447.307 279.665 446.167 280.589 445.125C282.321 443.132 284.187 441.26 286.175 439.523C289.421 436.591 293.063 434.129 296.994 432.211C303.094 429.45 309.646 427.825 316.33 427.414C321.876 426.864 326.283 426.549 328.722 423.817C328.722 423.817 328.191 427.532 326.932 433.41C325.198 440.984 322.91 448.421 320.087 455.661C316.778 464.447 312.362 472.777 306.947 480.448C301.459 487.937 295.027 494.208 287.906 497.372C282.239 500.146 276.195 502.074 269.967 503.092C266.064 503.753 262.081 503.792 258.165 503.21C255.073 502.885 252.128 501.723 249.648 499.849V499.849Z" fill="#FDB724"></path> <path d="M249.648 499.849C259.483 477.952 261.962 460.752 260.958 448.25C259.955 435.749 255.589 427.611 250.435 422.186C245.811 417.612 240.303 414.027 234.247 411.65C229.211 409.409 225.159 407.718 223.703 405.183C223.703 405.183 223.054 407.895 222.386 412.298C221.717 416.701 220.733 422.716 220.005 429.439C218.766 442.943 218.176 459.219 224.49 471.897C226.064 475.062 227.696 477.912 229.211 480.428C230.563 482.729 232.04 484.954 233.637 487.092C235.923 490.259 238.6 493.125 241.603 495.623C243.871 497.707 246.644 499.164 249.648 499.849Z" fill="#FDB724"></path> <path d="M0.861816 8.05911C4.14822 7.02082 7.52757 6.30328 10.9525 5.91654C13.9241 5.54345 16.9308 5.54345 19.9024 5.91654C24.7081 6.44187 29.3757 7.84788 33.6714 10.0641C37.7804 12.1955 41.4139 15.1379 44.3522 18.713C39.993 20.0784 35.4142 20.6053 30.8586 20.2659C26.1515 20.0721 21.5046 19.1367 17.0896 17.4943C14.3884 16.4672 11.7597 15.2588 9.22157 13.8775C6.27124 12.1842 3.47409 10.2374 0.861816 8.05911V8.05911Z" fill="#FDB724"></path> <path d="M0.861816 8.05908L11.1492 10.0247C12.8605 10.3786 14.5915 10.6734 16.2831 11.0666L21.3776 12.3049C24.7609 13.1698 28.1834 13.9168 31.547 14.8603L41.5984 17.8088C54.9564 21.912 68.032 26.8827 80.7417 32.6889L85.5215 34.8511C87.0951 35.5784 88.6294 36.404 90.203 37.1706L99.5463 41.9078C105.624 45.3674 111.82 48.6108 117.682 52.4242C120.613 54.2915 123.583 56.0213 126.514 58.0263L135.169 63.9233C138.06 65.889 140.794 68.0708 143.607 70.1348C146.42 72.1987 149.193 74.3217 151.869 76.5625L159.973 83.2065L167.841 90.2043C170.476 92.4844 172.955 94.9415 175.453 97.3789C177.951 99.8163 180.528 102.195 182.888 104.75C192.581 114.814 201.703 125.413 210.21 136.496C227.082 158.796 241.245 183.018 252.402 208.655C255.333 215.004 257.654 221.589 260.27 228.076L263.673 237.904L265.364 242.858L266.84 247.89L269.771 257.934L272.269 268.117C272.662 269.807 273.114 271.498 273.488 273.208L274.511 278.338C275.18 281.758 275.908 285.179 276.478 288.599L278.091 298.958C278.347 300.688 278.642 302.398 278.858 304.128L279.429 309.337C279.802 312.816 280.215 316.275 280.55 319.755L281.238 330.192L281.573 335.421L281.691 340.669L281.907 351.127L281.75 361.604C281.75 365.083 281.415 368.582 281.277 372.061C278.123 428.08 261.751 482.558 233.499 531.044" stroke="#FDB724" stroke-width="0.938637" stroke-miterlimit="10"></path> </svg> 